<mxfile host="65bd71144e">
    <diagram id="GM-oZbmw6dC9zVkYdqLj" name="Page-1">
        <mxGraphModel dx="1729" dy="784" grid="0" gridSize="10" guides="1" tooltips="1" connect="1" arrows="1" fold="1" page="1" pageScale="1" pageWidth="1169" pageHeight="827" math="0" shadow="0">
            <root>
                <mxCell id="0"/>
                <mxCell id="1" parent="0"/>
                <mxCell id="4" value="cluster" style="rounded=0;whiteSpace=wrap;html=1;verticalAlign=top;" vertex="1" parent="1">
                    <mxGeometry x="133" y="38" width="780" height="454" as="geometry"/>
                </mxCell>
                <mxCell id="40" value="namespace" style="rounded=1;whiteSpace=wrap;html=1;verticalAlign=top;" vertex="1" parent="1">
                    <mxGeometry x="646" y="68" width="247" height="213" as="geometry"/>
                </mxCell>
                <mxCell id="32" value="namespace" style="rounded=1;whiteSpace=wrap;html=1;verticalAlign=top;" vertex="1" parent="1">
                    <mxGeometry x="156" y="325" width="260" height="148" as="geometry"/>
                </mxCell>
                <mxCell id="2" value="azure key vaults&lt;br&gt;" style="aspect=fixed;html=1;points=[];align=center;image;fontSize=12;image=img/lib/azure2/security/Key_Vaults.svg;" vertex="1" parent="1">
                    <mxGeometry x="981" y="190.01" width="68" height="68" as="geometry"/>
                </mxCell>
                <mxCell id="3" value="namespace" style="rounded=1;whiteSpace=wrap;html=1;verticalAlign=bottom;" vertex="1" parent="1">
                    <mxGeometry x="516" y="290" width="375" height="183" as="geometry"/>
                </mxCell>
                <mxCell id="10" style="edgeStyle=none;html=1;fontColor=#000000;" edge="1" parent="1" source="9" target="2">
                    <mxGeometry relative="1" as="geometry"/>
                </mxCell>
                <mxCell id="9" value="" style="shape=image;verticalLabelPosition=bottom;labelBackgroundColor=default;verticalAlign=top;aspect=fixed;imageAspect=0;image=data:image/png,iVBORw0KGgoAAAANSUhEUgAAAgcAAAD6CAYAAAA1MuTVAAAAAXNSR0IArs4c6QAAAARnQU1BAACxjwv8YQUAAAAJcEhZcwAADsMAAA7DAcdvqGQAAHXqSURBVHhe7d0HvDVFmefxMzu77oxhxIhZDKMDCgIqKAYMmFBBUVExp8EcxoRrAkdEXdcxjIphzHHNihkxYAZzAsEEKkl0HOPGs/2tef9n+x7PueG8N533Pr/Ppz7dXV31VK56urq6+i+GHYOiKIqiKIpt/Idtx6IoiqIoikYpB0VRFEVRLKCUg6IoiqIoFlDKQVEURVEUCyjloCiKoiiKBZRyUBRFURTFAko5KIqiKIpiAaUcFEVRFEWxgFIOiqIoiqJYQCkHRVEURVEsoJSDoiiKoigWUMpBURRFURQLKOWgKIqiKIoFlHJQFEVRFMUCSjkoiqIoimIBpRwURVEURbGAUg6KoiiKolhAKQdFURRFUSyglIOiKIqiKBZQykFRFEVRFAso5aAoiqIoigWUclAURVEUxQJKOSiKoiiKYgGlHBRFURRFsYBSDoqiKIqiWEApB0VRFEVRLKCUg6IoiqIoFlDKQVEURVEUCyjloCiKoiiKBZRyUBRFURTFAko5KIqiKIpiAaUcFEVRFEWxgFIOiqIoiqJYQCkHRVEURVEsoJSDoiiKoigWUMpBUawBw+Fw8L/+1//advXv10z4v//3/y64nkbf3XL9bEb+9//+3+04nhbH4HrW9EVOP4/68oWfe//n//yfZuKOfdxhPA6REzN+f9wu7opininloChWCQPE7373uzbw4C//8i9HCsJf/MVfNIP/+T//ZzvmejHiz2DTH9DgfHyg2myIs7j/h//wHxbEtZ/2P/7xjy1PktZZ4I/8yEheMWQriyAucY/4iVvnyW/H3O+bfnlEXsh55BfFPPIXXQWuGlwU20m/GTk3eGRA+h//43+0AeM//af/NBo4PMn+x//4HxcMKn3IYDKoMtz2B56+m2lyNgOJu3yQZvGFwRXuySvuokisND38GtjJB/8J5/e///3gr//6r5sdw52w/+qv/mpieOwQ/yBfmXGXMMAeff8hsotiHinloChWATME/QEnaF6MwS9PopQETBpQJjFtkGFPxnLlbATSzCT90p5BNnbyh708TN6slOQzQ7b8imw4j32M/HM/iknc9vM0bhD/YOceuRDvlEfcFMU8U7W4KFYBA4InSgNEyCCYwcV9g0h/IJqEAcdASVYGHO77gx2EmUFssyKO/Th7aoe8kEbHKAnJv8XyZrnIe3IiK+G4Tp5lIO+X2TRSBuTGPb8pg8iK7KKYd2rmoChWgTSj0047bXCFK1yhXf/hD38YXOACF2gD30UvetE2qBgczS4YqBbDe/jf/va3TZnIoAl+2RmIgrA286BECWA++9nPDn7wgx8MrnrVqw6ufvWrD3bZZZeWD0ziL6/618tFXl3wghcc/OY3vxn85//8n0cDubw699xzB1e+8pVbHmZADykT5cRevnsFwS5rIcTdkVxhOCaOjsKKcpN4b/YyKYqlKOWgKFYBzej73//+YK+99moDRXB+rWtda3DssccO9ttvvzZgGYgMNgaT/kAVjj/++MEjHvGIwQ9/+MM2eBmA+KMYnHfeeW1wykAk3AxEm3Ewkv7E7elPf/rgOc95TrM3yLLbe++9B0cdddTgZje7WUurtEjvLHzve99r+UYJIUPY5F3qUpcafPWrXx1c7nKXa+6EKz/7ioL1ED/5yU8G3/rWtwbvfOc7Bz/60Y+aoWyAH7Lk+9/8zd80mX/7t3872HPPPQd/93d/N9hnn32aUqiMuIufophX6rVCUawCBgIDh6fMDEoGuwxEedrnBuNP/33cM1hlYO0fmcgA+5jNSJ6w++fSbZGgLzu+8IUvtKd+9AfrWSDbbA3kPcgzA0Ahc1+5MOLiSEk7/fTTB8973vMGBx988OBe97rX4H3ve9/gm9/85kiW/OaWf/n/61//us2AHHfccYOjjz56cN/73nfwhCc8YfBv//ZvC8rdeVHMK6UcFEWxQ2AwzoDsSDEwsPcVqvEB+4tf/OLg4Q9/eJvRoCQY1DOrwG1mMdiTMUl5ce9CF7pQM+NxKIp5pZSDoijmHgO6QdqsS2ZlKAVmBhzN6MBgn4H/lFNOGTztaU8bnHDCCc1PFAmDvCOZjozZgMwKRU5mH3CZy1ymvSrhrj9rURTzStXeoijmnswMGLANzgbmLBy87GUv2wZ/9hnwHd/1rncNTjrppLaGwCsEg7/XD9wZ9C984QsPLnaxiw122mmnwc477zy4xCUu0RaWWldAEQG5lAnrGdhFaSiKeacWJBbFKuE9tMVpmlSeTnGNa1xj8IY3vGGw7777jgYu9zLAjPOZz3xmcL/73W/w05/+dIEcA6AFiQYzxP9isjYDif+RRx45ePazn93imidwaXrPe94zuOMd79iuZ00Lf+ecc87gve997+BnP/tZs5N3Zg4ucpGLDB760Ie2QZ4dI28f+MAHDj796U+P7Jg89V/3utcdXO961xvstttubfEhrF2gQFgj8atf/ap9BaE8KBoPe9jDBgcccECTETZ7uRTFYpRyUBSrRCkHk0n811I5kK8xnubJT94ZvM0IOLLzZP+lL31pcOc733nwy1/+cqQQsOfvoIMOaq8blJtZAXAjXgwZrikeFlZSGpQJJcR9YcY9t0Uxj1TNLYo1JoOKwcmTZwYjg8gkA4OmwSpuwS97bpw7+qoBGWzBXlgM/5HL9HEfZMU/N/zEH3tGOK75iZz+NTeOZOFf//VfF8RpEkljBlBhjstH4pJzYSTOBmZ2ZMQgeU4+ZYHcvFqAWQZP/+RyA+f2OHjhC1/YPj/NYB85/bg6er3gVcPlL3/5pkRwR1lw7EPun/70p1F+5Ji0gBvniR83lI+ciz+T67gVnmP8Kaf+NbmR5eg69/OZpvPEcZz4iQzn/TLPOdMPt5h/auagKFaJaTMHvod//etfP7jBDW7Q7AweOY4PJDDVbcrbd/d9d96hmzL33pt8dgaDX/ziF22QMM1tb4QzzzxzcPbZZ7fBz7t0g7DB69KXvvTgmte85mDXXXdtGxF5T554Opouz2ZN7GLI8s2/9/PMWWed1WYw3OPee3lPzjY2utrVrja40pWu1GZJhMlNBt/xmQPx8kT/xje+sc0cCN/ngPLRYsGvfe1r7dyng9JO9t3udrfBrW51qxZuZCcNPo309UEGyOSR89vd7nbNbZSEj370o4M73OEOLV7iIT7u2yzp29/+dguPX3LhfCnIEGY+nTSAuzaoUkbsg5E0yVPxlUcXv/jFm4LhVYb9Eqx1oHSIl7gqw6xzEIY4kUMGu6Txhje8YXsFIo3CNCuiLv385z9vn2hKG1ni9/Wvf70pA+LIv7pwnetcp52ff/75rR6lDPjnTlzJ8PqEW+swuJ/ENPtijugqWlEUq8Cpp5467DpFo8mwGxTaOdM9hQ6/9KUvDbuOfdh12s3A9SRzwgknDHfZZZfmtxuwmiwyuwFi2HXsw24gaIbb0047bdgNrMNucBl2T73NbUzC7waYJifyugFk2A0kw2OPPXb44x//eNgNJsNuoBjJdO3YPf0P3/a2tw27wWDYDVgL5JMTmeLWDWQtHMcLXvCCw8985jPDbpAexZV5xjOeMfKbPOoG4eHzn//84Xvf+97hgx/84GGnuLR0Jv4JwzX5l7zkJYePe9zjht3AN+wGrGbElfxvfetbwxvd6EYjvzny0ylVI3fy8P3vf3+713cn7je+8Y1b2fTjvRTciId8k+bkn/OvfvWrw6c//enDvffee3iRi1ykhSNNCTP5wK5TKIadojW8//3vP3zPe94z7BSlURoZ4SinTjkb3uc+92nx5ScyX/e617X7X/7yl4f/5b/8l+H1r3/9Vmad0jH8xje+MZJx/PHHDzuFtfnnTxnc9ra3HXZK0fCVr3zl8KCDDmp1hGz35bs4Ms47JWHYKVvDj3/84y08aU0+jJtifqnXCkWxxnTtrD1JOXYd7GiaG+wnGW5j+GHXdbZthiD+XMNTnqd5T4LxHyKL266jb0+jnii/8pWvDLoBZHDMMce0GYeug29Ph0jc3v3udw+6AX3w+c9/vj2Nc0MWIpN8MnMtro6eMKUzcZyG+6961avagsFucGvbTwsnaUh4EI54WL/BLTfi6ijuwuOeu8QJ8szrgsj0FP7vcf33a+eR5Yk/aRGP5cCvdIuDc/7J8tR++OGHD17ykpe02QhP80i8uI37+DGb8Pa3v33wxCc+sc2oKFPlRj7MaEgbtykP98X7xBNPHDzrWc9qiyNf9KIXDb7zne+0WQKvD8gVVsqYH7L4J0d9eMxjHjN46lOfOvjwhz/c6giEy6TucCtOnWIwePzjH99mYMSFnKSnn6ZifinloCjWmHTiOk3nBh4dLZyPG+jsdch9OzIMgOSALIOe6V3u3WPXDw/ODQQwuLoWPj8UANsFGwDcc+TWmoHnPve5TfFgD4NbOn6Qwb3wMuByI05kc+v+YpB1xhlntGn3DD4GMEfwTw7ZBiVx8Zrhgx/8YHsNIY8yqCd8hl0GNP5dI3HnZtvpgni6n2v+ncd+MbiTB/xAvnmFYjtmA3TiRi53jpHJT8KSdvfkh22l3//+9ze/iT/440ba3EuZ29nx+c9/flMKIK+4Ea7y5EcdYcjzikG4yltefupTn2pKAVn8cSM+yU9H9owyFs5rX/vapnyN50/yrZhfSjkoinXAAJj1AJ6OvXf2Hv/HP/7xnxnrCgwoOmGk4zUQQOfNzoDo/bQ1De4ZdLw7tp6AndX21hj4wZHFdeCH0dF7Z+0d/8c+9rE2KOjwyTUQ+BeBOOvkGfIdxUkY5FpjcJWrXKWtBfCZoPfd1gJYdyFeZI0PGn0MTBnYyM3g6dwA5n78s+9few8ufn175wa6xJkd2Ygb9uBWmiIvx7iPDPTdTYMbRrkZUN/xjne09RkZ1KUpyoNzawzkmxkWeZb4ggz+KEFPetKTWl3hx33GObjhT1riPvEmw6ZM7K0hcB35jvxwR1aUMe5jD+se1CPGubhLIygWkEabSI3nUeJRzC+1ILEoVolTTz21LfZL55umZVCwSM+A17fHpObnic/glyd2Ha+OGRYZGuj5Y7jxoyYLzCw49PMfCwQN9AZKnT8FgNJhmttUtYFCx82/+Fzxildsg9n1r3/9UXw8gZpiFrZ4O/Jz05vetE0/UwD4FT55lAsDhnhbuHbPe96zpTv+ML4g0TH3ggHKpkWUDnIsyvSEyn3i4pwy4qnaz6wg3vLfQs4vf/nLLW7gRzzEK4Mww69PGZ0nzbjJTW7SftzELnFLGnI9Ce7FSzn5BNUCSwsQ+VUGBmn3bnnLW7Z/OPgaQlr4UzY+XzWL4xVAPzzn//iP/9iUBO4N5J7UH/nIRw7e+ta3NtnChTQ7Tx7xa7HjzW9+8/YK6drXvna7Jyz5RAkljx0oZ+qWsvUjLAsklQVZlFqvR/xzAmRDPSPbKwZyUr/FvZ+HxRzSFWBRFKvAKaecsmCRmfOYbmBoC7zci53zSabvjxx2/HcDQVskiK5zbgvBmK6Db8Y5+9xzjFumG8CHXac/WsSWOFpgduKJJza38ffkJz+5LQwUbtx2A8Hw6KOPbgsq+2E4doNf8+/oGuIUt8z4gkTpSRgWwHUD1rAbIIdf+9rXht0AOzz77LOHn/zkJ4e77bZb89cpOy0u/HYD/fCDH/xgkwthdoNxW4Q3no/i3T09j+LBWPAXN333nfLT5K2U5IU0W4xpAac49+O9zz77tIWpyStunTPSayEi94m3c/G6y13uMvztb3/b5MvPTkEcdsrXKO4JpxucR4sMLcK8053uNHzf+97XZHdKXAsP4nfVq1515E/8+FMPLPbsFM1hp4C0sPiD806BbOlKXYz/Rz3qUW3xZPJAepLPxfxSrxWKYo3JE3TXwbanR09nnricd53rn5mu029H8OfcEV2bXfBE1nXIoydT5+z7/rsBofllzCj4xDDhsCMrT/8JA57aveNnR37CJM8ToqNr9mRJizgkXtLKHzMN8RX23//937dNiSxMPPDAAwd77LFHm3YXX0/ynn7Fg8zNStItX7wu8nQvzjHu+3TSL6rll7Swk2+OZpbuete7NhnjZeyp3YxRrschXx1LmfrM8MUvfvHgLW95S9vQiWyvkpSFPAe35AmHH/ZeHfittt9Qm8FRzvyF2972tu06dQ78m+1Qf8gEudPiWswPpRwUxRpjANSp6sB1mhZ/ZeCdZtDvbOFap+z++KCsI2fY67wzuHCfztqApNN37IfhPIMVw79XFM7JdISj1xef+9zn2mAVOQZEfvoy+XMdu0mIm3zZf//92zoJ8jIYJa2O7JN3mxVxY8TZvhPOxZ2RN6698nE/gys755CH7kt//ClD1+pK3vFPghyDM1l2drSF9D3ucY/mX94lDNfKQ52JUsJO/Uk87Vfhmn3uJb6RxZ867UiOsLlNGKF/XswfpRwUxRqjY/X+34DpXbknYgv2vAN3PcnodHXkOu0MsOx0zux0zBl8+x19/Lju4zqdfIibfifOjrFQzsDkHn8wOFjf8IAHPKCtOzj66KPbZ3ff+9732gAhfdxmViFmGgYeiFM/HY4ZfKTF4IjNPNgkbvLAZ4NBubsnLRQcRDFgLw+SZrM1GZjhmPJPXi2G8rr1rW/dZl34yWxCwnIUvyhzZLqPxEW+98MXL4Yf8c41hBG5sUt6kGMxn5RyUBRrjCfC//pf/+vgIx/5SPts8L//9/8+OO6449rneB/4wAf+zFi4Zypdx90fzHW86Xx1yjpn5zpu5vTTT2+fs5lStj+BBYW+e3/Oc57TFrWJg0WJ/GaAIgM5z4BgwZxXEORmABC2a19d+B+CRYtPfvKTB4cddlibErcLpE/wxNvgY1DnbxriQGbiIty4N4glTl7BOBePzUzilzxjKFSQRvbyRZpSdpkpcc2tI+LfdY6LIe/kt5mh5KFyiHIQ+fJbmNy7R3byNvUtAz3EmV/24p44xo1z/hNmzrmNXTGflHJQFGuMp0fvmq2s9w7dinXnzI1vfOM/M3vttVd7itTBpvNOR27QzGCRQdU09kMe8pDBjW50ozZIP+EJT2hfBVAKHCkbjO/mPfkbHPqddwYFcmFAoNDYmMhqdfeF50nUkX9HA4WwKQuf+MQnBg960IMGt7nNbZriE9kGo2m4Z5DJjINzduLhPHEUvoEvT94rJXFZS4SR8hJf187ZuY5ikHvSl/vSlvzPWhRuGPnMnpmGe9wxqRNkuBaePGWn3ByFJz7qWOSyd84tf4788uPIIMpHZKIfv7gjo5hvSjkoilUineU4OsoMdHGTDjd2fZNOGhlwyHAvdgx8Bvfwhz988La3vW20Cx73Bhn05Ro40JedQcoAnfsZmA855JA2G0DhsKcBN4h/Sk8Gtfj1Tf6jHvWo9qrB/cR5EkmXsPph85PBCZQQdga1lZK4RRY5wkw47qcckhcZ2BwNohBH9/q4Zs9w2/dHXsLMLIjryOAndv1wpdsx7hLPpUjY8gr884uUG8hKfPqvPyAuyauURyCPnfg576clcUbs+2EW80kpB0UxR3gn3B/svKr4whe+0M4Nnjplg4JBIp15BhvXGZBcO4+JvJzz49wsx8te9rKmJNhq2ZcFZj+sSSA7g1cGUXJtrmTfBDIyQG0k4pT05LqffjhmwHZE3PTdxz552vfPsPe0HeS5vJGn8sL9ED/KjL0jt+SmjBj0z1eDxBvCTnqYxGsS/YWIQV1LnvX99tNazB+lHBTFHGFGQEesc/YJmT3ufTYHHbsOOa8xbETE3Pe+922LCK0NsFjNoB4yGEQ5ABkGtUxDWyDplQXFwKsKnxzasMevjW2s0x8YyCP/k5/85KZQDBInJvTt+ooQKFjsDYLuOUYJks64HTfuRRkzWCY8A757Bn0yoqAlbzLYRnmIPTuwz73VJmHAeeLRt+8j7VF8pFMaM0PAH5JHSB4U80kpB0UxZ2QwphT4tFBHrXPO5363uMUt2o+J7Ib45je/efDqV7968IpXvGLwghe8oC0yNNBwr/NOR4505uRngHBusDOIOad42E7Xugg/+LGWwTX3ZJFBvtcd6MvfKMSpP1CJq0FNHhis+9jdMPkj7t7Lc8tP7IP8kPfc5emZ2ywm5cdXHAZU+eZzRO4pChlcs47DNWUv8tnxT6ZwMwivJskT4Qg3cR4n7qRRvFxzK+/ED+zBf2T087yYP0o5KIo5Ik+0OmWzCPn5kAHHPfiXgmn/dM7cG1x8Ohm/6cy5SYfunMnTLXfcG8DYkWGQ4yaD4mUuc5l2L4MZ9+4xrsVtI0maxCWIo7xgxDN23NgG2iJOW04nn/g3yDtnF3nSzUA62ZEn7/vu2Ckf2ynn1Y/wwA23cJ87fpKfrikoFgKuJsINwkk8EpfAnhEfyqh4u5bepDGzCc6Tj86L+aaUg6KYIwws/U4YGZhi3M9Rp46cG5wyYMe/Y18GKBp+2JOd/jIQ9GXyQznJgBY54paBl/vNgLgl/rAboP835DppcvQPgWc+85ntlY0Fluedd15TFvyfwe6HZmv8wdBnqX6N7DNR/xxI3vk3QRaEInnjM1O/VaZoyKPkKU455ZS2qDTxdOQGfnR1yUteciR/LZBuMwN5JcKw6xuf4Ko/FCJlm/jZOIkC2fcnbalnxXyyqHKQQu6jI1ABQipEyHWZMjFQb9Sn/oDhekcjnbpjjE4y08Kulxo0+Y+MXMMTmkE7T+oGIIOcNho7sv0m2M+K4s8A7lND6w4MTtxHNpncJX4Z6IVzpzvdaXCXu9yl/VTnX/7lX9pg+Y1vfKO9MvAJowHyTW960+Css85qfslJmfoUMn0FQ6Z7MQnXPWH3d9mLm5z35Ub5cJTWEPkhbtgnve4LQ7wMuDe84Q2bG2sq+nli98fXvOY17fNQWx77CZFXNT7TdC1P7n3ve7fXKrYbpiDIF/FRDsrEWoykPUa+HX744e0TUfJ98mntBkXEeg75KY7iIV5wtACUXDLckzbXSLnBefKA2/G+exL5okQ46ontlsXFHhbWltjPwkZXPo/9p3/6p6Y8IGE52t2SHPFKHvbPizmlq0RT6Qq//Xijq2Tt+ne/+93wN7/5TfvJhvM//OEPzXQNu/2ow3mnWZYps8CoG47qjOOvf/3rUZ3aUdBWTj311PZTmq6jHP0Ah7nWta41PP7449vPf+J2MbpBYnjlK1+5/dRGE2W6jrb9pEje8c90HfXw4IMPbvbcdANu+3kOf3680z0ZD3fZZZfRD3nIEJ9OqWhH14z4nnTSSS3sboBrx065GP2giXsyyO3LyX127rG7yEUu0q79jEcZM2SK71FHHTWSExnC/tjHPtb6EG7iFs6lca+99mr+uI/fbkAffuADH2huUpfk//7779/ilXjKF/FP3oN79VA+X+Ma12huLnjBCzbZ4sNfTPKfiV3iLd+FI25HHHFE+7GRH2PpM4855phWFsmnHJNnkcNEtvMcI1sZdorYgnw855xzhocddlhzx038k60ck3/IefLI8bOf/WxLN/epC9LOCHc8LslL6WT4SXiXvexl2w+ZlFMQRsIr5pepv2xmnacIdBVn8MUvfrFpupl6YtdVnna/qwwjrbco+qgb6kmeeq95zWsOHvzgB7cthHeU+qI9+L2w/QCkKc1Kutm94Q1vaF8QoOvk2xOX9jMJvwy+//3v3364o02RxT081ebc0VS0vJS33Mlf8nMUPnfOEXni6F7i4jfHnnbFyX0LGW1qlHQow25AbO7ZMfyzJ6sbMEazQ76I8NR5q1vdqrljT+5zn/vctmNj5PHH3nS7n/okbDLEnxt2Fj9+97vfbfau4edVFl3mZ0D8+WWzfDv55JObGyT9ysZCwdhJhzyTTp9oemUgfez6cXMULsMfcj9w5xfIL33pS1s8xOe0005rvzL+8Ic/3NKPxJ+JXdKTcPi3vkAYXnvY1dKWyOyFz5x77rlt++p3vetdzR6OZPmBlXrmOnaR7dzx85//fCtbr0j6SH+nNDX3wlcGZPDDLnGNvXHg0EMPbTMn1p4g7pGwizmlK8yp0AYZmjDjd6N77LHHSKvkvasA7bxMmWmm60xanek66fbE1Q0Q7Umx64C21bT5p+sQ25Or9iC9SbPrv/u7vxt2ivXoF73c5jgJv9T1xNhvX46MJ2BtUbs0U9cNau2Xvp58uZPH/aM4yPMYvz82q+B+ZIur3/SKH8h+2tOe1tww7nPnSTHpEjd2MZF/sYtdbPjoRz+6zXCQI53KWVqPPPLIBXKE7/je9763hcsNt/HDP7s999xzlP7E5aIXvejw/e9/f4tz/Phl8w1ucIMWv8STMZvhiZ4sJvKZ8847b3jccce1X1l3ykNLLz/CkMakM+G7lzxxnXtmcKQ56RAvT/Hsd9555wX+koaYpIsb557M99133/b7arO0qSviC7/ezi+b48eR+cpXvjJyKw7OEb+OZg7+9m//trlPuI6ZdXKdmQvX4u2ojsUtuxve8IatrqqPQXgJs5hvJj+6bKOrBM10FaFprF3HMjjggAPadee3aYWMc+S8TJm+6TqkVn+6TmOw++67D+52t7uNnkJ3JKTnile84qgddB1qaz/S7jp5wJ173E3Cfff49RQqr/h1ru2RQZ6nXE9sT3nKU9pmRWZiugGhyU7ew7XfINvMyNoBT5ZkkCUMT6o+s3OurLjfZ5992h4JvnxIPNjHiA/7IFy/BvYO/ogjjmiL1IQR9+LqmhxhMOJnxsGix1xLN/cQhnsW44kr3OsGrsGlLnWpdk1m0izf3CMj8tyXvk45aHbuWd8A59YHmOGwdsJCRE/pye/QjxN5wiFbGs2CWZNgBoM7CId/Mx5mUMxM+PNk0p584Z4chr370vqkJz1pcOyxxzaZ0uOeJ3qIu/Syl//xT5YfeiWfye+nYRxh8UM2yFAH5IfzTjEbxVV6Hcnmz6yNGRqfyNoCPPHgBsmHYr5Z8rVCGiVUGKty/Q7UlGc6sYioSlFMQv3QUenQDGQWuLlm0unOO2kv2odPzwwwOksdrAHQIC6tOlLtRNuR/kltRidskZ+BgDsdsiO/17jGNZpMshjhCkfYppT9Ttn0uraqo/dvfgvavNrghgxfIbhvBb64kefzu8THkcwc7XgoXRbdmdJmbL0rnX7tTCmgTNjvwLV4i5u+QzjyglwL8myrTImBNIk/vwZapM8Rp9QbiyvBTWTy678PZHHnGl4fcEMOe7jnwUZa+E3cIF7im3xwT76cccYZLR9/9rOfjb7YUH99hWEAt6BR+DvvvHOzdz95Rl7i6dp956bxTzrppPaKRJ5yR3GxINIrhBvc4AaD613vei2+/Iu/+PCrDpCfMhevfMYaRZsCpLy5YcCtNMavo9cKXoOIj/ogryCPLD708yyvRez5QKZ4kkMp8OrpwAMPbAtOIy91OGGNXxfzyVTlALmVyprG88hHPrK971NpuWFUMvdVlmJrko5hvA7owNQRT69WaXuiUlfSQe+IpF2kAw2u2WNax9m/r+1pW8E99jlGtnN5GpnCSXt1VAbOkQ6dIT/lk7jlHPy65iay+c99/p0z424TLvfxwy4DX8Jnry8xiGI8DuPEL5nOIRxEAXIvdnHnuh8nxH4c9kw/DvEj7OQF2DNxm3QibhNu/5x859zHb8KNvMhKnOOfvfOkN7Ab76/ZRZ4j5cA6FQqAsBIXCo9PNylKSDz4B//swM557vXt4Zrhp5hPFi05Bc2kE0/l9mMVFSkVgT1yXWxNUl8YHVY6Jp2EOmT61jfgrlNndlSkOx2jYwySR9Po3+93/Ih9jpHrmlv5mnaaMpD3CRtxD26c537/HGTFTejfTxgYd5sydr8fF/TDZx/FAONxGCd+uUl6A/nu9+3iDv049e3HmRSH+En4gV3SET/kMnE/KV9iHz9IuH37fpz7fpybUXAew67fX0+D4hAoANpklJBAVtLAxI7Jeejbw3n8FPPJTKVn+vB+97tfq1BQCWir/cpRbD3UAx2MepAOh3FuWv1e97rX6KmE29SfoiiKYnMxk3JAm/QJi/efBgJTgrRVCkKxdTHYR0HMdCQlQH2xTuU617lOuxfFoJSDoiiKzclMyoGO3yKku9/97qMpS6ZmDrY26kUGfkfTn9h1113bbnNmFTKd6chNURRFsfmYqXemBOj4bSeaP7JZYV1sbdQDhnKgflgs5TWC1wm2WM0rh7gtiqIoNiczKwemiq0+942vawtjigLqgxklCoJXT15B+Twsi6coCepPvVYoiqLYnMykHOjUs87AwkTfNme62MDQX01bbB1S3srft+GO1hr4Jtr34ei/bqj6URRrS7+NZebO67980aA92ifBHgb2xaC0FwUW3edgGlEMVDbnT3ziE9tuWRYkjotL5aynxB2frCFw1AHZz+CVr3xl25GvFIGiWH+0Q2h/jFd9fjntfwg2UbKJk39O2NmTEu9PnNVWC8ykHPBCKTBN7NxmGje/+c3bzlq5H5yrbDMEU8wheV3gaBtYP5+xC1xRFOuPtughzjEzdpSC8847r+0uacbAg54+WpvNBkpFMfOaAxWIFqrSWZT48Ic/vGmpjPt5ikRNVW0NdD5RDjyJ2Js/+xoURbExZOB3ZCgF/plh1sADXmaBEQWiKGZSDlKRQAkwi2AgsPudykdBMEAUWwvlrm54h3nIIYe0vdqrHhTFxhHFANpi+uYo8e5ntsB5UYSZlAMVKzMEGQxooXe+851HU8i5n/Ni6+AnP4cffnjtmlkUG0zWgcV4mNMm9cn+wtif4QU3RYGZlAOYfso0sspGKbCYxffslAWaqIrnWMrBjoUyZZDB3zGdjz++Xe1qVyvloCg2GO2P0S6jCMTOKwXHzCxgXFlYS/QPiOICY4XzHMdh54F0fEyJ+/6sdrF9bFdNSCWDSuXf5hYmKiAVjp3zDCTFjoFGbb2J8o1yCNe777774IADDmjX7k1q4EVRrA8Z+NNGkX67r+Cvp1LQJwO9OOgrxCPxYa+viSJgoz1uMrbAtb4obvhF7IvZWdUa4Vv2ww47rH0v2y/UHIv5J51NyOyAxujPetYaeK0QpZA9UxRFEfJwoe9g9CPWruXBQ5/hfh4+jCH6E+fc/fGPf2xHxB03ztMn1UPp9rGqyoECtWuixYnRCL16cF7sGETRi+auESpjR68S/JbZFwrcRTFwryiKIhi49SHpHygE7IwVBnr2/T6EvUHfudchjJmEs846a/Dd73538OlPf7qZ3/3ud01+/BWzM9M+B9NIgZxxxhmDm9zkJoNf/OIXo4GhFIQdhygGyjoNGU9+8pMHT3nKU9r6E3bKPm6KoiiCgT79SJ729RNRDqD/oCDYl+E3v/nN4PTTTx/8/Oc/H/z4xz9uYwzF4Ne//nWbQfjVr37VPql/6Utf2rZsB78Jo1g5q6ocgAboSfIZz3jG4AUveEHT7lLIxfyjLGn4GqSG51qDNmvwnve8Z3Cta11rZK9qMdVAi6KYRF4NmAn4/ve/3/qNH/zgB202wE6Op556anvI9G8WSoPxJTMKyMOJPmjfffcdvPWtb217OIA7Y1ExG6uuHOBPf/rT4Kc//Wn7tPFHP/rR6I+NGTDGz+eFxNkR/bRg2vU0JuXBJLvNBuUgSiC8RnjoQx86eO5zn/tnDVJakh87OklrP82zPL30y7+fd7PIWgsSj0np7Z8vl1n8FPONOqTcU5/PPffc9kr6l7/8Zbs3De4ZbuJOf+Ocf8qBGQR2Va+2j1XtaRQGo2Aud7nLDQ466KCmEdLuFFK/oMavN4pUzvH4sE+8kfv96xxj+Olf5/4k+yCMxAGT3Gwm+ukQbxq7z1ef8IQntOu+YoDNnJbVJJ2V6dFcaws5zmIoYORFruNmQJknfkh8x9O6FONul+uv2DHIUz88cHh1sFQdn9QWXEcOmUyx/azJzAEU3oknnjh4yEMe0t4P5fVCgssA43qNorAsDGipaM77CoFOkIF7/Xg65y4aaky/0kbOeDpTgdmnorsX94jbzYY4Rimg+En/s571rMHjHve4Zr9VSXl96EMfGi2YYucLDjNpK0Ee+yzYxmJkqCtk2D+kX0c2CnFi1F2dOs4+++zBN7/5zdEsIft+W5iG9DCml9UlXzxd73rXq223d3DUjfS9yt/aAQ+UqT8rhYzrXOc6g3e84x1t5sC1OupYzEiXgatK14kNuwIf/vGPfxz+9re/HT74wQ8edpVg2BXSsOvk2rlgN4vpOrFF4yXe3HQd14Jrx5jY50heX6Yj/8kHduOG+67zX9LdRpvx9O67777DU089dVvpb23OPffc4R577NHyRh1JOaY+LNdc7GIXG772ta8ddoNvk9s9obdzx82GeHWK4vCoo44adgP7KL0XvOAFF9STacb9tBN5drvb3W541llnbZNe7KioMzkaL84///zW/43Xj+Ua9WjPPfdsfRF5yLGYjVV/rdA18KYNegqwav0+97nPYKeddmr32KMryHbcDJgaFS9x6jqpBcece0pmnHcdX/OTe3DOvm/HvTS7dvSUFZkx7uXIjacn/thtVsRN2TL+6GZdiZ8spWy3Mn59e9Ob3rTlkfJUJ7SH1J/lmn/9138dnHzyye0piknd2gx5LA6JhzQy4vzZz362fUaW2Q3xTv1ejOSVmRbub3zjG7d8LIpiY1lV5cAAqONwNHhgn332Gdz1rncdXbuvQ1iq01gvdN46JR1c4pZOL4M2e+c6aUiLa/bus3ceIoc79xjn7OPO/f55wuSW7M1K4qmMd91118EtbnGLTTPdvZHIE9gEilKcslavZuFLX/pSewer3qSuqKsbTb9uSrO4/fCHPxx85zvfaddRcMQ7dZ6bSYasnHNn8zSLyigKRVFsLKu+z4Gnap2Cp+A0cl8sUBI8WeSpexWD3S50UOJiUNY5ec/rPXHskA7u97///eCcc84ZnH/++e0+u0td6lKDy1/+8i2t/dkBfh29S+PH0yA5fpcqDLMp6RwddaiO3Fi56xvefOaz2aAMSOvjH//49smq98NJ91YmMz/+TurzqwyS6vxKudCFLjT4zGc+096jqkvqm7pB3kYiHlH+lbc0vulNbxo84hGPaLvWqcPim7YgzvxMwn330gavf/3rD97ylre0HTaLHRv1Iv2delBrDjYhXQauC8985jOH3aDb3qnn3TojChtpusozOt7xjnccvQtD/xyu99prr+aW6TrB4UEHHdTudZW8HYNrphskhrvvvvsonE6ZGL7zne8cuSczbsOrXvWqYadELIjnRphO4WlpdC7+XWNu150yMOwGr+HPfvaz0TvnrY7ykw/Mwx/+8JZn21O/+X3605/e5MrjTsFYUEc2gqQxZe66U4iG97///UfrBlZi0o6k1fF+97vfsBsctoVW7Mikz0g92t41B8zee+89POWUU0ayZ6HfztRzBur5tHtQbxlhdw+R22znm3Wbv77NbW7Tdq7qwhxpdI60x2Lz4enPE2/XGEazIMor2AnxYhe7WDt3b6uTPFCfb3CDG7TZp67zaMdZ6DqZwSc+8Yl2RMpgI0n4qQfi1imIbcc69WQW5Be50mfmoFMUtt0pivUn9c8MRsYnR/XTvbQB9d0vr+3LcNppp7XNmr7yla8MPvaxjw0++MEPtlm0WdvEZmHdRuZrX/vag1ve8paj96bp9PoDTrF50AiUjaNKzuSckvf3f//3o9cJxcIB058pr3CFK7SOZZZXCiDvG9/4xuAnP/lJu94sHU2UeeXuXMdIOZgFMlKnfMLoj66RXxQbhTbrNbF6SUnwyuPMM88cfOELXxh84AMfGLzqVa8aPOc5zxk88YlPHDzykY8cHH744YMHPOABg0MPPXRwt7vdbfD0pz+9vUKf97q8brH3DtWmSFa2y3yamMwr5WBzYpBTPhn8NRZlRiHwYy1rLZSdBhRFb6sjr+SJd6d77rlny69ZBvUMmtqJfROSz5uFtFnl/u1vf7utkdkepM2229kTvyg2CoO6J3//aHjMYx7TFtP7Bf1tb3vbwX3ve9/2UEQpOOaYYwavfe1rm1s/fLLHh1kE+5GQ4UuueWfdlAOdnWlDq9th4NG5ZPApNhcGANNoOm5l5WiaXCduRb4ptZDBYiuTAZ1C4FM8sweY5QuDyJL/nlS0E3I2i4IgjeJnga5PLmddOBulh+LpwWFWZaooVgvKLqXgsY99bJsh+PCHP9z+8WAGz1c5fvCkH1R3Hb0+cK6NqruM9hAzz6ybciADvX+9173uNbj0pS/dnop0MMXmRNlkZkenrSGY+j344INb+Rms4iZKxFYnyq48sXLaVynsVoo8hzaiQ/I+E5uhvYhb6oWO0quP7cWs4l3ucpcms/qEYiPxGbIHH3VcXWT0b2YEnOsH3dc2udEPOiLtlrLriy7HeWZdZw5g9uDud797O08n0+8Q2CWz14NUACbxienHy3U0w+CcmxzjBjl3jCJkkHXtGNjHwH0DiuNGkvjLk8TNlr53uMMd2quFKAfj8d/KJA/km9cK2f54PJ9ippE64ujJ5Gtf+9pI8dgM5MnJn/O8i93e9mo2yhqNothoosyr0+m/0+6cMznn1uwAd+Nu2MftvLJuo3A6FIOK9zY6zj4b1fGlYxO+uNEKU/DBohQVgJ3Zj7gFDdG9VAbnqSyOFAPaaAZZWqi84J485xBG8sjA0FcgNoLki2Pi6L2bb/j7GnHKLcetTD/PLnOZy7S8it1KUQ/4tRGSDYbUl81A6qe4HX/88a299NvKSkid8SVT6nvVo2IjUb+Z1Gnn+vCliD+owzHzzJr9eGkcA6VBxuCoY3nyk588eOELX9gKIZnIDVyvU7QaOiZhW0h2wxvecEHY7qkc6bw++tGPtnet3IinQeBGN7pR8y9dfb9Jm89bPAGCUrH33nsPrnSlK7X8yODh3KBLzumnnz741re+NcqPjUJ8xF86bEzz7ne/e7Dbbrttu1ssxRvf+MbB/e9//21Xf860Op72QPGkFPjK59hjj21P1xs9VZk6qT77f75/8GOWuqru/83f/M3guOOOG+y3336tnWVGqtixSX/pqLy3dxMk6Ffzy+b0qyvlq1/9aluA+G//9m+tfU5ro+OkznJ/2ctedvCDH/ygbXg313SJWRe6wa/9lKnr7NpGEV0hDK9xjWvI+dEGO46u19MIM5szdQpAM+IS03VWo41aXMcdu66jbse+P9dx59zGHvHPffySmzDGZTufFNf1NOIgLuLkJzrPe97zNsVGPJudfv6cdtpp7SdKynuSmZTvjHv9erHLLrsMTzjhhNZ2Nhp1QDy+/OUvt3qRuj8pHUsZ6bzpTW86/PGPf9x+1KZf0E9UHdvxUdY5Ku/NsgnSySefPNxpp51au1usjY6bfpvulIP208F5Zzb1agZoiF0nMnoSpd3d8Y53bE9HXTyacY9ZT8RJfIQP52E8Lty431WcP/MnfeAnaYEnP+7ZZabAedz33SbsyNxIEk9xs7jOQtJusNp2t5hGv85c+cpXbjNRK0W+y3/1gTyfCtpPoC97I+jXy49//ONt9kCcZq2v0rjXXnu1ha6ZpYopimJjWTflIB2IQdEgk30PuqeiNtC6Hzfr2UHogNMJC1/cdFquxTVTndw4iqtB3r1M8fI3Pt3LDXvp5Jd7Mp2TESKPbHDnXBw2EnGCqTEbe5gqSxqKySjbHBl1Sd7NQtqCo0H485///HZNua4Gyl69FJ+PfOQj22wXKg0rwSsFiqc2Qm7qXFEUG8+6rTkQDJNBT+dp4LWxhI0kPGEHg9B6oWOyhgDWD9j61uCcwd+CKwN4FIP3vve9rZPOQM+Pnd3Yud9Pp6N05Xe2Oj8zJd6Neb+WztZReD6XMRj7dM2mGhls1pIM9uI6jryxxsC786td7Wotrn3FpliI8pI/KTf5dcYZZ7SvPFK/5XfyelKeI3WCIU+98QdMa1fUG/4iJ+W3XkiHBZIWp+ZnYuKxVJvtxzfpli9+tKQ9JM/cT/qLHRf1RTk7KuvVWHNgFuptb3tbrTlYLbrEbCjdwDm8+MUv3t7Be8fadYbtfQ8jemttukIdHcd/vNRV3G1n/457/R8v8XenO91p9N6sj2tmOT9eiv8cjz322PZjo8RxLY38lvfO5bl4Jv+9ezv66KPbWpFOSRqlqVg+3tF3A+kob/20Kvk7XhZ9437ewWoX6sPxxx/f8r8boNuRbKxnmaij/+2//bfRe9m02fH4x6StWG/jWl1L2m9/+9sPO6V59AMb6SC/2PFJOafP2941B+rYnnvuOewerEbtYZZ2UWsO/j8bO3fdQdsz9dpVkpGW1hXqzJpfsXy6ytyOZnCc51r+e2KlgXfKT5s1sbdByqdYPuqxXUGTt56Mllu3Uy7y3aySrZQR/7mH9SqbrtNrMweOZta0W/VlKaQF3Adf+ZBRbb0oNh8b3ipNvdj3oL9Xv30B6v3j+iDPDTI6aB13zuW/zap8wsjOdLKycV4sH3l5vetdr22pbA2CPOwrwovBLf+OjE/+KAlIuTkuR9ZqIBx/YfSprfi4pkQuNbi7z22O8ecTzb5f9kVRbA42XDkwCJk9sH1qOoqlOptidUhH3e+8DWCwUFSZ6MTBnptS2laOn43ZEIlSYBbGoL6UkhU3UQDwox/9qO39Hr+5l+v1wB8YbekMsyDS1J8NGCdxR+LJjtLp/xP9uKt/1faLYnOw4S1RZ+ApxFPqVa961dZZWCC4nh3eViadcZ5STf/aBdKfxwxqysGiTPcoCNV5rxz/orAqP4rWcvIwg6pyUQb8GITzl0Z242atoRiecsopo78wipNwk65pSAPEm+H+zne+c3tVFZLeoig2B5tCOdDp7LHHHqP/uXu6qs5i/ZDXyXfGXvfWgaTz94WFMoq7YmV4dXbta1+7fbonHzPgLzag9wdUeR4/n/zkJ9urhdxnt15thZL4pS99aUF4i6UBiZ80xB/l8y6HHLJu8S6KYuVseE/vaciiJP+/NnuQT7UmoaNZ7cFJWJHriWY87PGnnnxqw22/43OeKXd+Ilf6+HEtne7Ffdw6Z9KBxv9akzgkXIZycPjhh7d35ImXGYOaNZgdeeiHYzvttNOo3qgXS5VxyiRuGZ9G+uEROQbrlNFqkjpvPwPnjBkln3fZbyHtJHGL+0moMww/lEx4pbDHda7TzhN/coQRmX3Ij1LlXl5ncCuOZ5111uDLX/7y4D3vec/gRS960eCpT31qW8dkduJmN7tZ2+aZcnaNa1yjfT7pQcQ6EAtFuXngAx84eMpTnjJ49atf3T4XtaaCXPKz1gau4Xo8ze717ZzH/WJIR8JajvtpCI+crEkZj99y6adD/dreeEEekuGI8fJdDchXj8bjKy3yhJ06lDo2DffycKrPc74c9O3pI1ey6HgS4px6lzFlI1i3fQ6mIQNkpMzwkxnT2W94wxuaXT9qOU8FWC3SOTG+3X7e857Xvu/vhyeOjgrKToH+YQ8d3oEHHjh4wQteMOr0GcS/KdiHPexhbd8C9wy6//iP/zi43e1uN3ILDYYMYb3jHe9obuyNsNYIEzpujcgK8le84hVt9qBYHdRtr8rMxnzmM58ZdY6z1GOzD89//vPb4Kf+RFbKcbUQN/FWL5wL613vetfgPve5z0jZZdc/TsI9RiebTvPRj3704J/+6Z/afZ21+zpWMlynk9XeGPWSYsL84he/aP9zsPbCt+TWYZxzzjkt/fymrSZO6aT7A5J7Ie5yLmwdvXymUPjm3X8f/NfiYhe7WOsbIh/9+PYhsx/+ONJFhvh+6lOfankdP+StBDMx2qvXV/wnTcys9UJ+SZt4+fY/A+xKSH7KAwqahebJu/T7Ka+1+LeC+KbcKU7yWdkmbybhtZn+/Lzzzmt+E1/y5Mck1O2UJ3OVq1xl8OIXv3imfQ7IIU887S1DhvPIXk82XDlIAaokMsG0qU6UopCoJVO4WW1UXkYj0CEoWAWUsMQplYI7lScVQbxVeE8j/UrNTzpQjfN73/vegk7Ck5OOxv00DkfyyfaffJ3eWqR3nL5yIPxnPOMZg4c//OEL3gcX20fqyzHHHDM48sgjR/V6lvJVRp50dWDKKJ3gaisH4kZu5Dsedthhg7e//e2j67iTtqRpEu7r8LQjnd3rX//69ols/MWkHfzyl79sswGe4C1+pAT4fPKnP/1paxuRGfr+Ge0y16F/nnxPGuIvcpJmdtxqG2YbbJBGeaYs2PwM7ksb90g4fVmLYSMpr1P1EWRxnwFtueh/Xv7ylw9ucpObNL9kJE2Jz0pIWqC/o4iOv05aLsI3aNucyJqy5AvEU5q5WasfL6lz5KtDtjJfapZGmzJjEvhNfZnmR5vkRr9vHOFHnZEW5ytBO+bPeq9XvvKV7YEV5K92G1+SLsEbTqeVjjZA6Qpm+IAHPGDBBhTOu8Je0aYUyzVdwY5+rpQwHLuCaEf3cmTHfe7FbUzkxC07R3a5ZhJmV5lG9xxdO2cmxXW1TcIWH/HaZ599ht/4xjdm2jykmI563TX44Ve+8pWW513H0fLb+aRyWczws//++w+7gXO00YryWs0yE9/I7DrXduw672H39NzCZ/rxX6y+xp00q2fdIDvsnvrbxkfJF/L1Aew6JWB4z3ves21oc8lLXnLUJsjpy4xdzhOnuHMdN84T1xjXkZ37cRt/2mjaNDvuO6VgeOtb33r4mte8Znjuuee2OP/+979v+ZY8Y5aCP4bb3XbbbRTmLMYP7E488cRtkv+9/BjyZ0GclDvTDarDblAd9RErNfLvOte5zvBnP/vZKL2M+CF1ba1+vNQN1i0dfoLWDfwL+uZJxj3uHJU7ueylfzy8GG7jnjvpiN+VGv7Us1133bWVqbolDfJovVlcrV0HugozmrrsCrWde3K9/OUvP9K63GPWgi7TW7jCYoTTFfQobJpnwucu8XCfu64ytPOu0o3c8YP4gXAYSDM30TIDe27469uvJcIRnnC9fzWVWqwu8rhr8INuwBt9AZJyXin8eAqy9qA/u7Oa9SX1FM7J9uRoSh+pL4n/YunIPe61BU/gnhC1HffIZtIGvUr74he/OOiU1DaDoI24x3/XSY/am+sY97W/2INs9gkjfmPYkT0ed/HiD2mn3LJzLX6f+MQnBk94whMGT3va09qTdcqBO2Y5pI+JXIij/q+ftuUackz9k5V4CGOlyA/y+nmVPBkPczlG/vGb+DimT10P1AvxgLQkfdOMuHpydy6+/DhPGU2CTOWWc/VKuIwyXanhX9jqFZO6vd5suHKQSpLCUAg60UMPPbR1qP1MWasMEodUXK8WhKuwTYF6bWAhmfd61gsoPHHlNg2GGwXIzyUucYn2XlKhxm9kp7KwJ4t8bskWrqOFmY5rldY+aSiO/b0m1iPsrUTyWEdjzUoGnFngz9S6BXhk6khWG3WAbEZbEF8bMCUdQVyYvt04uaddq+umftV19sJJh51655XbJS95ydaW2IWEkzYXv9oWYs+dezGIP3GIiVv3HMHOvciOf/fTSec/LKaeLWB81KMe1d5ls+c/kLsYuZ/wXPNv2nuliKs+g3GOpGmlJP+C+Mi7yF0p6o+0MeQ4rtdglzyVHmGqx67FaRrcMeA28eznyTjCoVAgaUw9c74SkzC9dlbnokgx682GrzkIyQBGgz/xxBPbu9Wf/OQnLZPTCci81YxyKo3Ct6jHSn0IR4PQ+ToKk5ujjjpqcP75548K0UYuD3nIQ0ZxJ4+fVCaLqCzw8w5VxdFB+irjute9bktXKp+j+xq4zsYPnlaz45eGfnhBQxHXZz3rWYPHP/7xo3gkv4vtJ3VD3lrM6h1zVoKvFGWlbCyE9X5VuTKpb6uFuKl/wvIEb40AhaRff5wnbYuhTah7V7rSldqAmu2kxVk7QuIvTL9yP+GEExa09bjlL36QOITEL3au42Yxd5gka5of+ZKj9Qe+kvB+2LX0iqNymUbkamtm6/ySWxozuKwE79j/5V/+pa2HiIzEL3FeCclnxiyVRahf+cpXtt1dGWTkp2EWdfbLrl+ma7XmAOqUWS/xcN6PwzSSfvkYZX5auQgreZ30rLQMg/DIsHuotuK372Dn3rrSJWJT0j0dDR/2sIeN3lV2Da69++kGV7m+aqYryNGx/+OlrjDacfza+zNuma6whgcddFCzd5/pu3fuXVundIzCmfTjpfiNeeUrXzm88IUvvCCe22Pkm/zLuXjLU0fmJje5yfCcc85pYXeNZ+Z3lcV05C3Ua+9G5XvqxEpM6l7XaQzPPvvsUZ1ZTSJPPVA/u4G6/UxGnCfFaTEjrmm7++677/DMM88ctZFpPOIRj2h+hccfGerruOzNYsTx+te//vCTn/xkW0PhPXE3oCyazpQb0w1mo3JlJoWxmOH/c5/73Kjd9mXPSvxb22It0qRwl2v8eO6MM84YyUXyJv3fWq05IFu+/PCHP9xu+etl1KeDDz54QfveiD55dR83VhHTKp5WTNN3GdNMF99laX3FnxPt11ONfOwaUMtLrzHuec97tnwGN0yxeiS/Hb1Ksqq86wC23Z0N/zjIb71Xu7zIU1+6wbnF2YyBVfWuZyFt13oDv7OFeE+Du/F6SMZmrZfakRmhl7zkJW1GyNPpWszmFFsH/YTXCtoNM2vb2x42de21cYwpWJ2CzGEsuilWRhQqHZbzVDb5airOFFZ/Oq86tdUnA5t890mcdSfKYRbI4PdNb3rTaEpztUk98fdFewoY8JiVkrg5el0gvkspNLvttls7igN3qY+L+dloxO3Tn/704DWvec3gohe9aFOuKDRFsVLUJQ9tHuQ2ss5v6lHA7IFvqy3egw6mBq6VI89UsszAGFxg/YP3pN5r0VLTma3FYLOVkfcpAwOenfq8f50FMgyuFL2PfOQjbSHcapcXeeTjzDPPbPsNpM6sFPFltGEzJtJPNrtp+KIjyhOzmNvNBEXK+iJ7lCjv6quKlZJ6o2/ut5ON6JM3de3Vkdj+9OCDDx49yTgWKyN5Jv/SyVME/Cnwrne966gCZjp0XjrjeSL1FxZeWfw6y+DRH6R9teATw9UehMSVTEebD2VDrlnqhTQzt7nNbdoTNchZ7LWCnf523nnndt5v88m/zYo8O/vss9smT2YOpHGzx7nYXKgv+mAzB2nrG9Ufb2rlwFS3T5oe97jHtVmErcRqdyo6LpVMR8t4krPi3QryTF851nTo2qLh+1SPYjbL07jyUZaO+OAHP7jq5ZW64hWer4WsN9iegU69sq4lCoH6Jx+mYRaLchA33IvTZkVeiZ/0WXPwlre8pZ0r343q2Iv5JMqBmbPUnY2qQ5u2xckkioGMse3mve9979bJpJNg38+0dGgrJf4YnxHqdIWtQ3Jkn85Xg2cP9unk0nH2jXsxriH+zjMoxF8QTvyuNmSKs/g62mTKHvf9DsxnjeK4WMddrBwzMqkHylyds5WrT+CS/ymXmGm4lzpDjpkDg3e/rqUO5XqlCINfynn+BbFYnAI34+3QucWuZgD7aSRzGvLL547iLn/Uy/gjv29iz8StfoOCYWrWbIW9Rhj7K+h0U8cZfrKvSD7rReIKi8Oc5944ye/Ex9bvtoGP/2LtkdfKwDH5rlxir5wn1Zlx47664zx1QJ1ZDH7I5965+pXwVkrC1D8jY8Is7Xh72TT7HEzDJhwa+/HHH98GM9/dptDD9iZBQcLeA/YsMKVDfgpGIaejfeYzn9n2eHfO+KGIjVCcqxTpSBnn9jnwMyery13roOwAaVEaP3EnDOfsPvrRjw5e97rXbdc3v+Po+KRHXuoM7WvwiEc8ooVZrC3KNINHjr67tt5Dfc5sQDqxKKPT6JeZ9/MWJnqfH3vhMWTOQuqlHxxZrGqPDvVmsfqYutuHnTgccsgh7Wla+0DyYDH85Ml+IGTEfdJk0DfzZQaG4qG9+gpCHA3kOnN1XHhRBPjVzvQn2qS1Gl4BnHrqqe3/DRSslAN3wuTPeeKA8TQGbsC/MI844oj2p0ftbhJ9Of6NYF1HmBbGNHzXr7/Qp6g/ff+J10qJDK+UrPuadZ8D2AvmQx/6UKur5PbL1NH19u5zQMZ1rnOd9tM6+ZEwhOdoHwn1UNlDuU5CmfuRF//8cqcuLbYQPvUk9Uz7NfOlrknjShBXddnP1e5whzu0eMQ+49R6samVgxSgTLHxkAbnj42ZUk3GYXuSoQGTSWPU0Qg3nUQam8LRKVmgBXY6I3HI+yHu2fcLVMXSCaWScOMpRpiJs3v8uKeCeXLyV7DVJBWXuelNb9o2C/Hk2s/DYu1IvUgZMDbc8n6avbrCTj1ajnIQP+rks5/97KY49zuihDcLqf/HHntsk0sWHIU5Ce5zrx8PbcQfGP28J6jf7BfDjAjFRDvxFOUXyzax8ac67SdKQWYCyIsikPbkOJ4PrqVPHnsFYBEhxd3rGb989hqFP26SHsd++iaRNCcsA5Ef50x7HZo8RSkHa6McCCvpUNbf+ta3Rn32NL7+9a+3PwOb/em3xcXapXFDnU5YZrr/+Z//efSQuRKEI08sWta21UN1PPm2rnSBblq6AXu0oUWX+cOPfOQjw0tf+tJKYGS6CjbaKKVvvxLTFUiT0VWcduw6pNHPM2K6Tqdt5uLcfX74dZ04cMM47ypMO3LjGPf981xHfqdItHPhxO9qGLLJ7SrbsHviGnYVt+Vn1xBb3hZrS+pw/9h1NMNuQGrlkjrkOKn8xg136lD8PehBDxp2T0RNdug6mG1nK0f8+L/5zW/e6nrqYr/ejpvEvR83192AMOwG+tGGSug66nachnbPfOELXxieddZZra6C/8iAOLrnp03jJI+TD46uEw/XfTvnJ510UtsQrJ+GtGfnSdMk417yiZ9OAW8/+5lGwmdsYhT5i4UxzfC/1TdBkm9+1nXqqaeOwnBM2TLqVO5Nw0/BbFRHpvJMmWoH/fDGDXdpK+q89KwWScd6s7I5j3Wma6CjWQJ0lbTte9A1vpEW1aWhned6pQgjMroCaHa0wGiw7qOrxO1+V/gjLdGTiiPDnpuuINu1eMeNe+Q7gpvEOXZk889PZKwWkSUMW7XKQ+mSj8Xao4yVgfJFyt0rKU9LcD91IcdJ9OtM5PqiwIyWehO4mxVyf/7zn7enqNRF8vryx0kdQ/yQ46sMaeQ/cVqq3nGnftqDw5cL2pD2xJAtH9PWyPI0OI6w07YTb9fJu9gnD8nzhOtX2J7k3Uua3e/HfxLcgBvnZv5MT8e+2BiUecox9W6xMjHDoJ5xm/pBhj5/Gv06BP1spyg0u5UaOAo7dS926830XmiToGBkkqPFRd7vy3jXSEbOmnn8IvJSgRQ4476jCpYj0gmYUvKzmF122aVNJznaN8BXAFe5ylXaObcqDtnxD/4ZYceNY9/NakCu1xvCuf3tb9/ipQFIT7H29Mu5f21q3MLEfqel7B0Xg5vUW26tW6AcpHPaXsi0ENGUu/N+vFeCQduAa21A6nVf3jS44Tbu0v4pCZGT9ul8HO6ZyIkJ7Jn4J5tRDtYd/cM//EPrY9zjLuE6n0buZ1Dxman32/1wi/UnZZ3ycVysTNxTL+I2dWkpP4i7fjgrNaBckJFz9ku1mbVgU48OMiUDajoDT1v3u9/9Wualw0hGzgK/CtVgqXN17NvH5DqFFXudu81oGAsJ/WDEL10dXb/xjW9sgzH/CcM5A9d9O6ZfOVaCeMmPnEOeQRji4c+LFAWdX7E+9OtvrlOHHvCAB4zKOu4WK3v3Ul/4h8V0X/va19q5e6lnyyFyHPv17p3vfOcozu4vp3PybpR76dBuvXO1y2n/yT5pXIyE5Zg4JM/GryeRe30TnJPLxD5uyGVvXxVtJfnCLnk9jfiPH4qBckl+FmuLfFYGjsnzlGvKxnEpuOvLSHnmehL9tsZ94jEr2k7qvnMsJ+6rzVw8OiZjHGWW3956MlcoOjSdj8xMRs5CCrN/HD/PdRAfq6MtkmLMIMTk2kxCOsdx/6EfzvYg/amoaQyOwmfvSwyLuyalpVg/lEvqssVTdkvMAKS8lmK8vjh60tcW+CeL3XKUzMQl8eHeAj1f5KgzjHgxiyFMr+LIgbAtxrNILHbLJe77/pzHLMVy3Y0TP76EMAsoTewoW/JlsbzM/eSTfLNafTE/xeoyS5lPYnvKbDXKu5+O1UrTLMyFcjDOXnvtNbj1rW89mu7TEWGpDmxHR4ekcvanROWJzs0TnE/D3GPHbbHx+GLEbFgGImU2S4dw0kkntc8jA3lREhbD/RhQLqw18PkiO3VFfByXUly4j3Li6B8JnsDnDXG3SVXO9S/yYKly6eej9vW73/1udF0U88ZcKgeehP2x0exBOkDHra4cIB25zikDhNcI9lbwJJf77IuNx5oVr6agbGZV2nwKZvZA2WZAWmowA8WRO4Y/4fvky6dcBsbcWwr+uOvXvSjw84Y0WETpKA+Q4zT6eZR8qJmDYp6ZS+UAvnvef//923m0+6Ua8I6OTklnJC90zskXX3nc6la3am503OyZxVbgFmtPBg6/KLYqX5nNOpjw9973vnc0Ba7cDVBLDex9N869J/f1w6Tvzd2fhlcSaX/kUXrsijiPyL/8ByJpXizt6Jdb2mHKoijmkbkcTXVCNkI59NBD21HDZbZ6Q+w/dXpi0znp5O52t7u1lfHjazKWGjiKtUX+M6befT6nvDBrPf7iF7/Y1gtoH+TmuBh5shcm93YLpBw4T33KvcUQThQS7imk1t3MY5vUTihq0iQ9y1Ha3F8qr4tinphL5UBD1GjtCGb2wLXOa1oDXu1GSx7TD1d84Dymf71eiJc4GWh0/L4Vt0+9Ds+9dHziNK4sFOuPsvK6xztu5TFrmShbrxZOPvnkUV3EYnXPPeFnQGdsM0vB6MOe/MWIIkGeNNghUD1bbaalJ/EfJ/aTzDTkR/JEetKmlkPyaan82uqsRf4sVqbFyplL5SCN1faSD3vYw9onUxrzchvw9qISigOjIzQFm4rp6Qm5b5Ber0FYeHniYazNsD+3ryZcJ39ynyk2nnzypz7PSsrWD3+gbLWJxcq435k6V3ctRrSQrj9rgP6s1CQSFvf+H+I1lvPUs8XisVwSF0cmgziz2mizibO0J22LkXjF31LuNzPj5bUa5dcn8saPs8J/8j6y5jn/NwNzqRwgnaEfzvguud8w+xUEq11J+pXP4i0/yTjmmGMGz33ucwfPec5z2vHoo49u5y972cvabnPrgfj0O0yfUXr1sl7KSbFy1CXlZg2NGYSlBuFpkKPMv/GNb7R/eVASXS9W97WhuGGsQfnc5z43cxzII8eMns8Bc71ajLdr8mNS5/tmqbCT7nEjH/xoJ0rBaqejKOaBuVQONF6NVgfoyfyxj31s+wtWGvdak3DEwTQs5eAZz3jG4OlPf/rgqKOOGhx55JHt/GlPe9rg5S9/+eCXv/zlNp9ri/joFDN7YDdJf/gqNi8ZxKw78Goh9WqleOo3U+SVAAWB3P7T7zTcZ7j1k51vf/vb2+7Mzo1vfOO2/wfEY7VJnNMOGQO4eh9lIemO20lmGvLRKznyKAhRlhbzUxQ7GnOpHGi86XR0ajaSuc1tbjN6Qk6HoTGns1hNyI18R/txCyNxYpeOOffWg3SO4mGtgd0QsRYddLH9qCcGHmWmTpuKzx4VK4Uf5WzL4+9+97uj11vCmEa/vjr3W3Sf321P+Je61KXalsnqYuzXAmHJu/E0OOY892O3XCPvPIA4h7TkvCi2CnOpHJgt0GA1YoOwz6YMhJ6S2euQ1qpTGiedoE4o5+KlM9Hpp9NcD9IZ+oLDL3K9+61ObfOirJjUVwtHfVUyS33hX7swHZ59CpT9YrLSRhwpFe9///vb9SyQISy/mrW7YOr+aivGSRPZGbSj0DhP23NP37BY+O5NMlHsnSMPHUWxlfiLriHN3eiRTkCjdTQF6PvsBz3oQYPjjjtuwRMD0nGsJjoOMslmIMwoJ4mja/FZD8RJeD4j819zypInIJsgFZuT1MvUV7slfvOb35ypzmSw9Hri7W9/e/sDJ1I/J6F+aD+2S+aPgiEuKyXtwX9PXvjCF7b1E2tB8kuaxN1Ojtb0fP/7328KESVH3rk/Szqg3Z5xxhmDd73rXaNw0q7lzzTcFz9uhe0V4xFHHDH6XLRP0gGfsZ5++unbrhbeWw5mTl/3ute1tR6pA0GcZoUcr5oOO+ywtgPnSuMVzCR96EMfGlzxildsMvpxikz9t/5q0v4ay4FMW3Xr9+RHymKl6f/qV786OOCAA9q/MfhfbpoTDvfS4WdoebU2t3SJ2WH48Ic/PLzkJS85/Ou//uv2X+2uwNo/wh0ldUcxF7jABUb/1k86Hdl1FXL4z//8z+3f5d0T1bacKTYz3WDW/tfOvPjFLx52Sm8zyrcbWFq5prwXM9yqC+rABz7wgW3Sp9MNYK2eCF+48T9LexG/C13oQk0Oual7zleKfIgMcfvDH/4w/NOf/jQ855xzht0gNXzRi140vPOd79z+my+fxHtSnDbKaIuOnXIw7BSLbalaiPTFdIPZKN9nyXv+P/e5z43++d+XPSvx3yktw+5hY2K4yzWdcjDslK2RXCjXHNmdf/75ra+e5H+5Zu+99x6ecsopI9mzcPLJJw932mmnUb86KZxJpl92nXIw7JTUbRLnl7l8rTAN29CamjXN2KWtzSzkyWhHoauA7amE6Trkds1Amj15Wn8B6WbHFJsPZQjloywZvwy2cVXusXPfdcp5Gl2n2Nx7+vrCF74w8jcNT8jaCH/ceyqetb4Ix6+ZtUFtztqJpcKfhvhrw+qvOJ533nmD17/+9e2z5Tve8Y6DJz7xiYP3ve99o/8/iP9G02+HRbEjsEMpB96xP/jBD26LoqDj8O34YlOB80Y6w06zbZ1nv/O1qM1uiL7cADfVaW1+lI9yZbyzN82ccjM4sl+qDCkFUSDU9xNOOKEN0ovBD/lnnnlmW6eQMJcKaxqmjcVfvUvdc1wpWZRp/YRfoVMKfP1je2iKAig1ybNZ47vaJB6bJT5FsT3sUMqBjsLMwYEHHjh6ak7nuqOg40nnk/dzOkodvT/8+SGVd13sdK47Utp3ZJQTY0Mk744N9Bm82SvzxcpyfBD2Dt577MUGZzLJ9z7Z57YZ0FO/VoK43vKWt2x1L/HGLLLEQ/t97WtfO3j0ox89+NjHPtbWElg7I1/I7sufZXZirZk1H4tis7BDKQc6Jea+971vm+I0QBpAdTQ7GmYPDBaZetURPelJT2qzJuztcucrDuebsfMs/n0AyYDvmEGRcuDVQu5lAFxssEkZR47yN/W+GOqNNmIBpMV86lTCmoXb3e52287+HXFJGlaC8L1GePGLX9xmNVybDaHs9vNgVvlrTeKkLyqKeWWHUg6gg7PbnNkDnSSzGd5JrhY6nnTe6Sh1QvY1uMc97jG6p9N3ziw2qBQbh3LJQKKegp3V1j4HHC87ZTqNDOzIoGkaPk/YkxCm3RQpB8JyPWtd8aXDbrvttiA9zmeR59fTz3rWs9oXFHnFQF5kJp5J56xxXk0Sl5wnzkUxr+xQtTdrCy54wQu2LZX734xvhg5ktdBh6njMDEifp81HPvKR7WmTouCeKdh0UDtS2nc0lE0MlJdtr727RwYd5ZrBZxLxn4GJ8Rnaqaee2hSHtAP3nbMj046Kp5xySrunXi2lSEc2Q1khg7HWpf/JrPuJ+zSiuOQo7J/85CdNMRAv19ZNkKFti7fzpCfynQsvJH6TyL3FDKRt0vU0cq/vJopNUcwjO5RyYJDUUXmVYNW+ldMaJ7sdBenROTpa0S1tN7rRjdqWtez6nZHzenrZ3IyXGSys9W24BaYZfLlZbKCFss6ACd9qj3+10B9IDco//vGP23qDDMRkLFZn+nGNLIOgv6Nqf7kvTHL67seRLjIMvF6D4KMf/Wjb/jnpiEGO00hexZ34jKelL3OaIUPeOKfwkJN7SyG9cbdU+otiM7NDjRxpwDpVm7Dc6173ah3tpK8VNNp5bLjSlw5V/M0eeGq73OUut81FMe8YVPbbb7/R30aVs8GbmYZ60R8YwX2+WkhdjzxuKdGf//zn2xbfrnOvL2MS3MTAa5BsuCTuzFIyAncMWeeee+7gwx/+cFNqZkH8yYpCkBkJaUu8YoQ3bhdD2dG+GH0H05dbFFuBHa626/A0ag355je/eftrYzqxHMP49bwgbTp+nZ61BtIpzcWOg8H2ale72mjwzAC6GOpE3DHqx/e+9702Rd+vMxlEDXre78N9JvemEfmOeQ1xs5vdrH0y7DwIB+RNI7L449/rDbMGs+DpHglPWhLP2DnPdY6TzPgnoEkLP0WxVdihlAOdgUEyjdiTl0+hrEFwb5x5bez9tJg1uPKVrzwxfcV8ol6a+TLo5nopDGAG2f6gqC1YcOhPi+wMfDnCmgR/FWXnKdsxZinIZ8xceX1HUUg888S+HFmJC0XlO9/5zuCcc85p1ytFmNJr1lCY5PbzrX++FHFLhjx1TeZKZBTFvLNDKQc0fp2kRmwGwdE+2be97W1HnWY6q3lu6DosneGee+45OOigg0ZPNsWOg3pqN8AouzFLoS5kwFVP7Fnva4TMqJGrLcD/F7QZ7jIQpn0sBrfc+bTQr6a9ViCT6cdxKXnckiVe6rONmJaTxkmQIXxKhnApCR4KbMyULynMxjDWczB77LHHRGOPfnuGmI2g9CQ/i2IrsUMpB3l60Tlo2Bq16/5KfkRRmLUjWi/EVzzTweacvfQ98IEPbGsNdIjVge04pJwzSKmvSymAKX9uc2Snbpiuz18aozRbzOovjKlbBlekzSyFtiZOBl0/mgG/qZ/QDheDuyg/zv30JrMOK4U/hqJiv4+Pf/zj7XXKD3/4wzYjwVA++obSNMmcfPLJrW1Jz3IWaW4W5H3KLuW6FJPKejnlvxmZ13hvVnYo5QAasYFTp8NoJJ6w73CHO7Rrq4/T2NMhbkbEO+9RdZxJVzoAaynufe97L/tpr5gflC/jPbwdL3O9WH11Hxn81YsoDAY8fy6MDHXpu9/9bvtzHDdMBuX4WYzIVx89idtwDGlvqY8UiMUgR1wcKSv2Nej7XwnkXP3qVx8cffTRg2c/+9ltIymvFZPelWKnR3kiLuInX2aJ13qSdIqrOC+G8mPizjEG/fqTfmczk3JyTFyTlmI2djjlYBK+WLjrXe/aOjEVnjHgbuYKL346+lR2FT2NXsdlNsT7XsxD4y2Wj7LU0eugvTbK1LY6sVLUF0/Q1hZksCP3E5/4xDYXK0O8mNRDG45FiV0pGXzI8jnl73//+3Y9C9J161vfuv10TDq3R/Efb0vix2xWxDdxzjF5Ow3uUpZxy0465V/uUdrySqrYWmwJ5UCl9yRhPwDTrDozxzwtbUai1RsQ0jnFWAAmPT75yoCRTqGYf3TWjPrpfbn35uqsTnql6OD5++xnP9vew8NU+ec+97l2Pgtkqp9eJ+y1114z1z1yAuVAvGaV5QHAAk6D2CxK1Dj9uCFtb7Mi35RJzmOmIX3upw+MW0f37DvhnAJo7cZm7iuLtWHLKAfWHJiitQpcI9LZrkYnstZolOKbd7zi72nS7o/OswBrM3dcxcpQXxmDuc7Zhl7Kd3zAWg6pF5/85CdHM1E2PvIufhb6T5nilT+gzgIZEEcLJx3Jn6Uue11ocSTlQNvWbiJ/R0c6Y3K9VF2Rx0xeu+hDKGdRArzS8qWLTbR8QVIzB1uPLaEcwMB6q1vdqk2DahQa0Cyd0HoS7V7cxVXjta+Bry/AjnJQDXfHIp288qUc7LPPPk05nFU5YCgEFto5/9rXvjY4//zzt7lYOWSIz/Z+KUMOZUC68qSatK+UKM+MAU6bmFXWvKEPoPilfshXRJGbBDfyx5Fi4Fye6WMoBe9617sGj3rUowbPfOYz2yevs9S9Yr7ZMiWuAZg9OOqoo1ojSAParIifjk6jzBSzp7Tb3/72gytc4QqjTtnTpQa92dNTrBwdvqfgXXfdtZX5Yp39Yqgb6oi/NHqH/PWvf719vbA9eLI0jb89s1bxp46L3/YoB/LGAsS0G/HaHuapPfmkNF+jMCutJ9wrgzPOOGPw5je/ue0sa38YP+7yrwsytzc/i/ljSygHaSwquKlQrxecsx/vkHI9aye1mlBiEkdPRo4Pe9jDRq9EXDvO+lRZbF5StjpmP2G60pWutO3OyiGLoRz4asFnfdsz+KmXZq8oplFeZ0GckMFne2TxR5kii5z+YOaccs2N89zr5wE7T+DsLIzcaaedmr00RhFPfCfBH9NP02Jp4S5T+Npv6MdpuZx33nltJ0wKVrbClh7hJw6Owku8GG4oFr5cOeKIIwa3uMUtBg996EPbrpm2snafn5jNjHQpd8fk4WLlNY3IkT/8O0eOk0jfLN8ZfrURJD7yL/nej2PKIfbjqJOYdG+t2RIjioJVWI4K4kEPetDg0pe+9KIFvtGIm8bej+MLX/jCphgUOz46A2Xt6CsbCxO3p77qvLxKePe7393WG+iMZoEcbejOd77zaFCbNV7SFnnWz4iT61nQiRrQxIUcx3TI6bjZJa7CZigUwndfH+HcAjzu+DN4cpe/nK6EhDWNhNd3N0v6pd1TvvUBmUkEueIuDEijmSOzAdy+5CUvaQ9KXre+4AUvaJ+S8r+Vkf9M8o5x7TgN+c9NBnjrZ7Qx9vJbHUoZpywim33qpmv3lV/apzrCPtfryWytes5I5spoR5vL+OwpFQE5cts/bhTio6KoOI6+TrjLXe6y7W6xo5P6p6PwyaovbfLp6kohS33ydcs73vGO0b8WZoEcG2+pjzo/7Skd3iyIG//5cVja4UrxtG+zJ/J0xpEjfgz7GPdyTgHLdZAuMyzyyD1GHPtuloO2O43EQ9woI4HdShGO2SCvTF/2spe133T/+te/buXtKxDXH/vYx5oy8PjHP37w4Ac/uL06eMpTntI2i/rVr341CjeKxVYlZSw/Jp0vRcaY4447rimnlC2KZfy7P466xQgnioJzcnKctb1uD1tCOUjhymSdgc+eLKbK5i3u91luRVhLxCnapKeqhzzkIa2ibYa4FWtPyj4zRZQDa2ZmJfXm+9//fhv8ZoUcvwfPtHs6s1nRJsnwWSQ5rmeBQuAPlAY6cYzioh2R7xgDbpzHDcysnHTSSYNDDz108MpXvnLknludNznTiNvAT8KdBjfCv/jFL77N5v+X00ogQ95ZaPq0pz2tzerc9KY3HRx44IHtp2z6Ojs+PvWpTx28+tWvHnz6058e/OIXv2h5lPTltcGkwWsrob3JTyYsVobIDB/kqbx861vf2nbhTJ1OGXFntgrOGfbC4MasgzJw3VdIl4rDWrAllAOkADxhGGTtMHj961+/2W9G0hmpaJ7S8nfJjagkxcago8kAY68DWxXPio5Hp0Nmnm5mQVy0G/GK4rI9dZJf8aH4ZBvmWZAeezf4XwSZXnn01+JId39NAqONsfd07VfRj33sY9uMos8+fb4njeTmnfJK0pl0LQV3yjZkMFgplCNffFhz4LWB3S+/9KUvNWXQFLdXLu7lCRXSJjzXSav82Mp4cMxgn3xaqkzkKdJWlbs1IE9+8pPbVx/KRt6qf1HClJWZHcqsWZ+Xv/zlTSnlnltkzMKs9WJ72BLKgYyNkdkKyKzB/e9//1agmxFxFc/sa2CNhEqzWZWZYnVR9qmbyp2xXfaspD4hnc8sXP7yl29bJlOwyek/3awU/pNG9fqqV71qO58VU+m2T37e8543+NSnPtVeM5x11lmtA7aa3zGfdJpmf81rXjN4zGMe056u7aDqaU9HbhBFvwyw0oFzsbaqH2IMRF6pxG0Gg5UQWTAwpZ9j+nKF5dr9vpvcz+C2lTGL40uc5I18Wqq9aAP9fIe8pqw+4hGPaH/OVS+91nnGM57RFn+qdwcffHDb2t8ieYqpdSMU0ygbkbVYPVpTugRtGbrG3o6dBjfsCnzYaW/DAw88cNgVwrArgNFRtqyXSZhdw1wQNvuuwg3322+/4amnntrinfgXOz5dB7HtbNjqquvzzz9/eIlLXGJBvVlOneVm/Hrcrm9yr+vg2lHdjN0tb3nL4emnnz6KkzrpfBa6gbjJ4L97iho+6lGPGqUl4blmxMH1NMN98kO8L3vZyw7333//4Z3udKfhIYcc0o7a+k1ucpPhrrvuOtx5552HF7jABUZ+xk3SzJCfeE0zcRt3zl/96lcvKMc+yT+87W1vG7X/pdI5zfTjlzj349M3iWvM+L3+9WqY3XfffXjGGWe0tKauJO0pf3W7Uzgn+l+OEe+99tqr9ZWz1keozze84Q1bHdL/yj/1ZFKYfcNtPz/5i//xPE0Z993nWhqSJ50yul1p2V621GNoVyjtmGlCGuI//MM/tI1m4NjlSdPU4na96CpBO3oiS/y6StLWGlztaldr9/KuqtjxUQeDuuDaU40NkZyzU1eXw7g718vxy03CYdRLey6YxULaCTezkKct9dxiy7yuINeTl/OEnTRPgxttyNETvhkDn+T5fPM973lPO3p1cOKJJ7apdq8Nsio8YfSNOOUcaZ9LEfdL0S8/f940nd0Pb6X04xcZjpPinXBi+oxfzxOrkRblYqM89Y1/9dAM0lJww33ClO/sUr/6qFvou4dza0HMXPX9jbtbL7aUcjAJU4r+2CjzdSrpgCY1qrWg30k4qlAMe++YTXcGFbXY2njFZFCF+pL6k3q7GqQ+qoc6SW2BfAO4/3rYbKhfb2elH2dp8rtl79/JzeAMR21ze8PbbCQ9tkKXdnnNFBuHuu7zzny1oYyY9XpY9OrrzDPPbG0jineUifVmy9dEHaC1BzvvvHOrEAqj32mtNakA/ack157SjjzyyNYhq7DiSTlYL6Wl2JwYnM0gpMNKfVlt1L9AvnB8oeBHS6mD7JzPWifJ7dd9igH5rslkZ7CkOHAXpWhHQTphzYEZGcSu2BjUMTNY6qI6Z2BeT4VNP3/66ae3MIWPtWrjS7HllQON0aIQn2fpEPPEsl6FISzoDIVJAWC3//77D253u9steJqIm2LrYgo6Xy2kLjimHq0W6Zz6bWGPPfZoiwb7AzdmrZP8RbGgmFPQDzjggPZ6zz3tMfeFl/MdheSvmRh9kP0OVrrosVh9PJDd8573XFD31+vpXZuyYyUSdtrZelPKQacc+CLgkEMOaU9GeUpZr46or5kKW+cgHrZJtv7AfXFJZ50KU2xNfPJHkVVX+gPnaqKOeYKJXEdKq+lWx9RF9jmfBXV93L9tmTM7oe67p41yt6MpBxl85Kl9Cbxa2NHSOK/YcO7KV77ySClYzxmdb3/726Nw1YeNmk3a8sqBQpD5vm/2RJYOcT2nMMUhHYVOcL/99mu7OLITN2ar71xW/Dt2W7OVssW0qTOrPaCQSTlQ7zJ4e7q1PkddTXjbWyej4FhoSxHGLrvsMrjPfe4z+nRX2Gkf60lfaclxOXDb97eY3wwA0q/vsRCOohD6fheTMwvLkRc34uTTb2sjEPvlxmkxd8p1tcpWONsrS1ko+2te85ptMyntTD1NWa0W0/JEOPapyBobbWC9637Y8sqBThCeyOwilg4rHVO/EMevV4vIVTHE4453vGP7C59GyV5lnWVv961GOppxsyMhPQYSX7AYvFNPVxsys+1rFFZ1UvsQLnvT/tuTx8IgL4qBc5jSvfvd795eLySNjtyNp3WptPPHxJ2j9GTwz3nfcC/tnhy9xhEvZrGwci/+xdVxMdyXNvlIvm/fU65MZJGd62lwM264d5x0372ki+wc3ctRHniV5NfN73znO9tGPfqk3E/8mGn05aknjtKcehMT+8XSuBhkSAMZ+lFHZqVIH3/qHiXVGh9y2TuKXz/dzpMXjkh6FzOT/DlnfGmTv6bOmo7VYMsrBxqxAlG5bDeqMvRhjxRgjmvFta51rbbWYLEGV2xtrnKVqzSDdDCrjc4wf/jTKZpZY7ceCM8/AHyZIW3eARtAxSVxSGetfS43/eNt13X8pw9g2FvzY8MaDwye4jIQLAZ/4qUzJ8durEt17O7zx1jP8cxnPrO9Vkz63E/YS8mKHAi/79414obM2PVxz8B4y1vesm3c87rXva7FSX74RXe2nOd/moxAljTkAcygzUhL4pn4mIWijCyVxsXgV3iRLX6zIE3iaIbuSU960uh36ezJznnc9g3cT7qm0b8nrNStyPdJo7xSD2ZNx/ay5ZWDVFgFYOrUFwIWBvULOyxW2NsDuSq1eNzvfvdru9AVK0c+TjI7EjpaU512VUsnu9pp1Dmls3I0WNnCW3vo52vfrCYGY7+oNjibRZNm073Cdw/stBdhJ66TkBbuoI1lQGMfOzK48aBA6XrFK14xeO1rXzs47LDD2hoIHXSmeZeCO7LFzyzgtLhxQ574JA8NjtZ1PPrRj259kHDJELeku0/8MSAzctklrSFu2SU9lC5xFF8r9O3CaZbgzW9+c5sxsP4jP4ZSD7z6EJ/ESXjJ33HIJzcDXEz8J57C1/dOk7MUZAiDf/GJzEl5thT8qhP8kkkhOvbYYwe77757k8nIs+RjZrNyD+xTDtNIWvlNnMmCWYPTTjutyct9Zr3Z8spBKmsKwMIgHQIUTFDQixX2rKiIjEbk/wk6h364RdFHXVFfLUrUaacDWU0jDINxrq1/Md29FvV/EmYKdM5Xv/rVB8ccc0x7ejcwebrUgToXR3GTfm1nGtxlkOQubtnxz56ype35bfEXv/jF9tfC7OVgkaDXC3HrOMlA3PQhwhQvWzFPy7PYx2+OFIRHPvKRbdtdGyPZg1/8yE6c47Yvu3/OXfIn6RcfbjLIsCffa5Pb3OY27YdM0v7617++zRpY86EM1DX+xcNg6ffOjuJJnvPF6qB75Ci75D95/ImLa781Jkt+Jd4rMUi+i28USWGsFHEAOeJOrlmTl770pS3t6l5f6XAuLO6R+CyFuIJ8fhyF7Whth3whF8nf9eYvuyflI7edb0kUhsqqcFNgGqM9rrPH+lqjEnhCePazn93e8YlPUUxCXVFP7XXwkY98ZHD22We3jiMDwGoagzTZpvcNGFiPutnvMH1J5OnNAjGDiL/W+XuiexkMxCkd6TjsGfKkyZE/nTylx6tEXwZ5Srbg0pS6jtngx62+4Otf/3r7kU5kjBvhM+lLMnDaXM0nivyNE1ngL+fwZCpuXjN4/8wYOLjhr5/WyHaMIY+bvntHCg9lxyyQuJmlfOITnzg4/PDD24yAtPIL+ZpZhfSNZBh4jz/++PbTIGlNvHM+yZiWt4ZEnU3cyIo/5re//W37E6bBdjFZkwz35JptUlf9wEsZCiPhLBeyxC+KBflk2ItCGzCr6770Gx/c44Yd4zwsFja3yVPnlDSzNBQQCyEp/+q+dMXNYvLWgr/oAp3cqrYIKpFCUgh5MvEHM9q7H2HInjSYtSCV0fSpBT80dtezaL3Fjo+6oZ7qhPzYxWDZ75BWg9T31E1P8AYV7WS1w5pEBoh0huJgcPT3RAP1Jz7xiaa8n3HGGaOnxGltNB2rgdG0ucWcNrnx8yiDL7tME/c7ef2CvsDAeOqpp7Zp3sgbJ37gvrhLg6loeTfJD9Lxw5GMHN1jfvSjHw0+//nPty2gbf1MQRKnfnr7MtgLX3opQJQq6ZRur0wMbgbPvPJglGviH7kp+8SJvTwxiPuttfJIOvlfDPmbfWQY9NPqaGZCuTpfaR1LPM2kUXIMqvJolj5UeoQvHox0uyZPeuWB8cEW3Mrjs5/9bPv0UPwz2yYucD4J8tQ75UEJtM7MzBw7SkJeayfs5Mc0eWvFllcO+siKFK73bhSE8847r1UKFU3FUUlmIQVMlkJPwQtPQ37Zy17Wvq2NorJUgyu2Lv16uh4dxnqFsxj9NFOOdMY/+9nP2u9uDd7+tmgBoA7aAHSpS12qGR2uzyMN0hbTacfalmPa5CS2N838YzXyTX9gMJZev2L+6le/2nbR8xdKaTDbYSraoC+tjHPKQV5HSLPj9pA0YSXp6pfdYv5WI8+3N79XIsN4oC6ayTKDp0wYiwnVT+WmLurfDfpmNhj10EyE8nA/dXF7477alHIwBU8p97rXvdoTikKMRqnAV5plCl3jpHXySw6ZFA33rHGwCCqrYtlHwy6KYiHaiHbDaE866CjT/Q42bS3u+nbziLgz+ofxNCSd2BHSOk/06+M0uMF4GSF2i/nfCKrmTMHUlHeRCixTSgp4lsamIlAM+I3/zECY3vNfb5q/sNyvWYOi+HO0o36nCtfai3aj/eR+2pI2G+MeO8d01vOEeCcN0jduQtKXPqZYWzKjLN+RckqdQ8osdXG87JjNRikHU1BYVqn6esFTfLT1WToV/nJMJUiFMN1ptbCppTTozVhRimKzMKkd9U3s+0fKfdohYj9PZNBJOvsm9zMgZVAq1h7jg/qFfr6nXML4vX7ZbUZKOZiCjsTq3Wc961lNM/R0onBnKcw02JxTBMihCPhsyvsn4Vn9WrMGRTGZfmeqPWmXMXBPO2K0M7N12hiT87ThyJknpKs/S8IknUmXewYq7vQzxfqQ8mCUhTJJucS4p2yiSGx2as3BFBSshubo05ITTjihvduEBrkSUmlUCvIyS2A3xg996ENt0ZCwdHI+H0tFKori/5OB0MCX9pFj2ky6s/75OOm0521dTz+N8iJKQrGxpFxyjknlsti9zUjNHEzBQK4QGWsPrAje3kLVKUHDJs8WsY6UBeHl++iiKP4cg6EBXTvUhpi0F0cmbbZP7uW+9jbPC36loa8YJG3FxjBeDtPKgru47bOUv42ilIMpKMR0Pte97nXbDmrOU8CTzDTSkD3xMORYz8CMy4gpimIy2kemZ9NWJj1Fpy25FzPP9NM3ft6/LjaGfl1bCSm/zVaGpRxMwVO+wvKE4csFrxayz/lKyVMOmY5mC+xhbvvSoiiKothslHIwBYpBpnpogrZWtb3lLIt8yPCUA7J8AWGXts2mKRZFURQFSjmYgsE8q5ud23HM/71nGdApBGRRLHwB4edKvlDIGoSiKIqi2EyUcjAFg3k+G3JOQbjrXe862G+//ba5WD5eJZDjuPfeew8OOOCApmSQXxRFURSbjVIOpkAZMKDbr93Rnu2e+p/61KeuePYgsigZD3jAA9re2hSFoiiKotiMlHKwBBQCT/j2IqAU+LuY7Y4N9jDws3ftmGuvENgxFAFm3333bb8UzV4GRVEURbEZKeVghfh64R73uMdg5513Hl1HMWBCvnbIvcw6+ENXXln03RdFURTFZqGUgxVisL/RjW402GeffdrsgF+pwkxAZggy8FMCGPhCwV4JlAazC0VRFEWxWSnlYAZ8aeD1gH0PKAL53DGfObpmMqtgn4TDDjuszR5wQ2GgRNSrhaIoimIzUsrBjNzqVrcaXOta12rnZgnMCGSWAJSCKA43uMEN2mxDlAJu3csPY4qiKIpiM1HKwQwY8M0eHH744aO1Bf01BBQAyoFXDr5MMMtwmctcprlxz2sFigE3RVEURbHZqNFpBigHBnabGZkVcJ1ZgbxaoDT4wuEKV7hC23qZPaWAoSTEFEVRFMVmo5SDGaAYUAQM/kceeWRbW0BBMNibEYgi4BfPRxxxRFubkFkFR6ZmDYqiKIrNSo1QM2BWwOBOEbB3gfUHBvy8KnCkPNzsZjcbHHjggU15KIqiKIp5oZSDGYgiYKbADMGhhx46uMQlLtGuMzOw0047DR796Ee3DY8oCkVRFEUxL5RyMANmBygABn2Dv10T/TMhaw/c9xdH/2Go1wdFURTFvFEj1wx4rZAvDnClK12p/ZQpWy37QuFud7tbmz3IK4iiKIqimBdq1JoBawjMEPzVX/3V4A9/+EOzs7Zg9913bzMK17ve9doOipQC7swoFEVRFMW8UMrBjGR9wYUvfOF2nX0PvGY45JBDBpe+9KWbPXdFURRFMU+UcrCKeJXwkIc8pM0i+JyR8lAURVEU88ZfDGvOe9Wwr0FeJWQzpCxctEahKIqiKOaBUg5WmXzimFkDikIpBkVRFMU8Ua8VVhEzB5QC+lb2NqgvFYqiKIp5o0auVcSrBEoBhcAMAiXBp4xFURRFMU/Ua4WiKIqiKBZQMwdFURRFUSyglIOiKIqiKBZQykFRFEVRFAso5aAoiqIoigWUclAURVEUxQJKOSiKoiiKYgGlHBRFURRFsYBSDoqiKIqiWEApB0VRFEVRLKCUg6IoiqIoFlDKQVEURVEUCyjloCiKoiiKBZRyUBRFURTFAko5KIqiKIpiAaUcFEVRFEWxgFIOiqIoiqJYQCkHRVEURVEsoJSDoiiKoigWUMpBURRFURQLKOWgKIqiKIoFlHJQFEVRFMUCSjkoiqIoimIBpRwURVEURbGAUg6KoiiKolhAKQdFURRFUSyglIOiKIqiKBZQykFRFEVRFAso5aAoiqIoih6Dwf8D5XODQmc8i64AAAAASUVORK5CYII=;" vertex="1" parent="1">
                    <mxGeometry x="692.02" y="181.14" width="177.98" height="85.73" as="geometry"/>
                </mxCell>
                <mxCell id="12" value="Unseal Keys" style="text;html=1;strokeColor=none;fillColor=none;align=center;verticalAlign=middle;whiteSpace=wrap;rounded=0;labelBackgroundColor=none;fontColor=default;" vertex="1" parent="1">
                    <mxGeometry x="914" y="187" width="60" height="30" as="geometry"/>
                </mxCell>
                <mxCell id="28" value="environment&amp;nbsp;variiables &lt;br&gt;credential vault" style="edgeStyle=orthogonalEdgeStyle;shape=connector;rounded=1;html=1;entryX=0.995;entryY=0.63;entryDx=0;entryDy=0;entryPerimeter=0;labelBackgroundColor=default;strokeColor=default;fontFamily=Helvetica;fontSize=11;fontColor=default;endArrow=classic;" edge="1" parent="1" source="14" target="24">
                    <mxGeometry relative="1" as="geometry"/>
                </mxCell>
                <mxCell id="29" value="access secrets" style="edgeStyle=orthogonalEdgeStyle;shape=connector;rounded=1;html=1;labelBackgroundColor=default;strokeColor=default;fontFamily=Helvetica;fontSize=11;fontColor=default;endArrow=classic;" edge="1" parent="1" source="14" target="9">
                    <mxGeometry relative="1" as="geometry"/>
                </mxCell>
                <mxCell id="14" value="business application" style="sketch=0;html=1;dashed=0;whitespace=wrap;fillColor=#2875E2;strokeColor=#ffffff;points=[[0.005,0.63,0],[0.1,0.2,0],[0.9,0.2,0],[0.5,0,0],[0.995,0.63,0],[0.72,0.99,0],[0.5,1,0],[0.28,0.99,0]];verticalLabelPosition=bottom;align=center;verticalAlign=top;shape=mxgraph.kubernetes.icon;prIcon=pod;labelBackgroundColor=none;fontColor=default;" vertex="1" parent="1">
                    <mxGeometry x="756.01" y="371" width="50" height="48" as="geometry"/>
                </mxCell>
                <mxCell id="15" value="namespace &lt;br&gt;external-secrets" style="rounded=1;whiteSpace=wrap;html=1;verticalAlign=top;" vertex="1" parent="1">
                    <mxGeometry x="189" y="157" width="221" height="130" as="geometry"/>
                </mxCell>
                <mxCell id="19" value="PV" style="sketch=0;html=1;dashed=0;whitespace=wrap;fillColor=#2875E2;strokeColor=#ffffff;points=[[0.005,0.63,0],[0.1,0.2,0],[0.9,0.2,0],[0.5,0,0],[0.995,0.63,0],[0.72,0.99,0],[0.5,1,0],[0.28,0.99,0]];verticalLabelPosition=bottom;align=center;verticalAlign=top;shape=mxgraph.kubernetes.icon;prIcon=pv;labelBackgroundColor=none;fontFamily=Helvetica;fontSize=11;fontColor=default;" vertex="1" parent="1">
                    <mxGeometry x="724" y="107" width="57" height="49" as="geometry"/>
                </mxCell>
                <mxCell id="20" value="PVC" style="sketch=0;html=1;dashed=0;whitespace=wrap;fillColor=#2875E2;strokeColor=#ffffff;points=[[0.005,0.63,0],[0.1,0.2,0],[0.9,0.2,0],[0.5,0,0],[0.995,0.63,0],[0.72,0.99,0],[0.5,1,0],[0.28,0.99,0]];verticalLabelPosition=bottom;align=center;verticalAlign=top;shape=mxgraph.kubernetes.icon;prIcon=pvc;labelBackgroundColor=none;fontFamily=Helvetica;fontSize=11;fontColor=default;" vertex="1" parent="1">
                    <mxGeometry x="800" y="107" width="58" height="50" as="geometry"/>
                </mxCell>
                <mxCell id="24" value="secret" style="sketch=0;html=1;dashed=0;whitespace=wrap;fillColor=#2875E2;strokeColor=#ffffff;points=[[0.005,0.63,0],[0.1,0.2,0],[0.9,0.2,0],[0.5,0,0],[0.995,0.63,0],[0.72,0.99,0],[0.5,1,0],[0.28,0.99,0]];verticalLabelPosition=bottom;align=center;verticalAlign=top;shape=mxgraph.kubernetes.icon;prIcon=secret;labelBackgroundColor=none;fontFamily=Helvetica;fontSize=11;fontColor=default;" vertex="1" parent="1">
                    <mxGeometry x="548" y="314" width="50" height="48" as="geometry"/>
                </mxCell>
                <mxCell id="26" value="fetch secrets properties" style="edgeStyle=orthogonalEdgeStyle;shape=connector;rounded=1;html=1;entryX=0;entryY=0.5;entryDx=0;entryDy=0;labelBackgroundColor=default;strokeColor=default;fontFamily=Helvetica;fontSize=11;fontColor=default;endArrow=classic;" edge="1" parent="1" source="25" target="9">
                    <mxGeometry x="0.0849" relative="1" as="geometry">
                        <mxPoint as="offset"/>
                    </mxGeometry>
                </mxCell>
                <mxCell id="27" value="upsert&lt;br&gt;secrets" style="edgeStyle=orthogonalEdgeStyle;shape=connector;rounded=1;html=1;entryX=0.005;entryY=0.63;entryDx=0;entryDy=0;entryPerimeter=0;labelBackgroundColor=default;strokeColor=default;fontFamily=Helvetica;fontSize=11;fontColor=default;endArrow=classic;" edge="1" parent="1" source="25" target="24">
                    <mxGeometry x="0.5589" y="-23" relative="1" as="geometry">
                        <mxPoint as="offset"/>
                    </mxGeometry>
                </mxCell>
                <mxCell id="36" style="edgeStyle=orthogonalEdgeStyle;shape=connector;rounded=1;html=1;entryX=0.995;entryY=0.63;entryDx=0;entryDy=0;entryPerimeter=0;labelBackgroundColor=default;strokeColor=default;fontFamily=Helvetica;fontSize=11;fontColor=default;endArrow=classic;" edge="1" parent="1" source="25" target="33">
                    <mxGeometry relative="1" as="geometry">
                        <Array as="points">
                            <mxPoint x="437" y="224"/>
                            <mxPoint x="437" y="412"/>
                        </Array>
                    </mxGeometry>
                </mxCell>
                <mxCell id="39" style="edgeStyle=orthogonalEdgeStyle;shape=connector;rounded=1;html=1;entryX=0.005;entryY=0.63;entryDx=0;entryDy=0;entryPerimeter=0;labelBackgroundColor=default;strokeColor=default;fontFamily=Helvetica;fontSize=11;fontColor=default;endArrow=classic;" edge="1" parent="1" source="25" target="38">
                    <mxGeometry relative="1" as="geometry">
                        <Array as="points">
                            <mxPoint x="435" y="224"/>
                            <mxPoint x="435" y="157"/>
                        </Array>
                    </mxGeometry>
                </mxCell>
                <mxCell id="25" value="external secrets controller" style="sketch=0;html=1;dashed=0;whitespace=wrap;fillColor=#2875E2;strokeColor=#ffffff;points=[[0.005,0.63,0],[0.1,0.2,0],[0.9,0.2,0],[0.5,0,0],[0.995,0.63,0],[0.72,0.99,0],[0.5,1,0],[0.28,0.99,0]];verticalLabelPosition=bottom;align=center;verticalAlign=top;shape=mxgraph.kubernetes.icon;prIcon=pod;labelBackgroundColor=none;fontFamily=Helvetica;fontSize=11;fontColor=default;" vertex="1" parent="1">
                    <mxGeometry x="277" y="200.01" width="50" height="48" as="geometry"/>
                </mxCell>
                <mxCell id="33" value="secret" style="sketch=0;html=1;dashed=0;whitespace=wrap;fillColor=#2875E2;strokeColor=#ffffff;points=[[0.005,0.63,0],[0.1,0.2,0],[0.9,0.2,0],[0.5,0,0],[0.995,0.63,0],[0.72,0.99,0],[0.5,1,0],[0.28,0.99,0]];verticalLabelPosition=bottom;align=center;verticalAlign=top;shape=mxgraph.kubernetes.icon;prIcon=secret;labelBackgroundColor=none;fontFamily=Helvetica;fontSize=11;fontColor=default;" vertex="1" parent="1">
                    <mxGeometry x="338" y="381" width="50" height="48" as="geometry"/>
                </mxCell>
                <mxCell id="37" value="configure" style="edgeStyle=orthogonalEdgeStyle;shape=connector;rounded=1;html=1;entryX=0.005;entryY=0.63;entryDx=0;entryDy=0;entryPerimeter=0;labelBackgroundColor=default;strokeColor=default;fontFamily=Helvetica;fontSize=11;fontColor=default;endArrow=classic;" edge="1" parent="1" source="35" target="33">
                    <mxGeometry x="-0.2628" y="12" relative="1" as="geometry">
                        <mxPoint x="-8" y="-11" as="offset"/>
                    </mxGeometry>
                </mxCell>
                <mxCell id="35" value="infrastructure / platform &lt;br&gt;deployment" style="sketch=0;html=1;dashed=0;whitespace=wrap;fillColor=#2875E2;strokeColor=#ffffff;points=[[0.005,0.63,0],[0.1,0.2,0],[0.9,0.2,0],[0.5,0,0],[0.995,0.63,0],[0.72,0.99,0],[0.5,1,0],[0.28,0.99,0]];verticalLabelPosition=bottom;align=center;verticalAlign=top;shape=mxgraph.kubernetes.icon;prIcon=deploy;labelBackgroundColor=none;fontFamily=Helvetica;fontSize=11;fontColor=default;" vertex="1" parent="1">
                    <mxGeometry x="204" y="357.5" width="50" height="48" as="geometry"/>
                </mxCell>
                <mxCell id="38" value="api&lt;br&gt;server" style="sketch=0;html=1;dashed=0;whitespace=wrap;fillColor=#2875E2;strokeColor=#ffffff;points=[[0.005,0.63,0],[0.1,0.2,0],[0.9,0.2,0],[0.5,0,0],[0.995,0.63,0],[0.72,0.99,0],[0.5,1,0],[0.28,0.99,0]];verticalLabelPosition=bottom;align=center;verticalAlign=top;shape=mxgraph.kubernetes.icon;prIcon=api;labelBackgroundColor=none;fontFamily=Helvetica;fontSize=11;fontColor=default;" vertex="1" parent="1">
                    <mxGeometry x="516" y="127" width="50" height="48" as="geometry"/>
                </mxCell>
            </root>
        </mxGraphModel>
    </diagram>
</mxfile>